<?xml version="1.0" encoding="UTF-8"?>
<svg width="1300" height="900" enable-background="new" version="1.1" viewBox="0 0 1300 900.00001" xmlns="http://www.w3.org/2000/svg">
 <defs>
  <linearGradient id="l" x1="541.27" x2="590.43" y1="347.94" y2="141.06" gradientTransform="matrix(.70858 -.64006 .64006 .70858 -96.587 610.44)" gradientUnits="userSpaceOnUse">
   <stop stop-color="#371607" offset="0"/>
   <stop stop-color="#741f00" offset="1"/>
  </linearGradient>
  <linearGradient id="m" x1="605.93" x2="646.63" y1="525.96" y2="374.04" gradientTransform="matrix(.70858 -.64006 .64006 .70858 -96.587 610.44)" gradientUnits="userSpaceOnUse">
   <stop stop-color="#4d1e07" offset="0"/>
   <stop stop-color="#451b07" offset="1"/>
  </linearGradient>
  <linearGradient id="k" x1="646.63" x2="677.81" y1="374.04" y2="236.09" gradientTransform="matrix(.70858 -.64006 .64006 .70858 -96.587 610.44)" gradientUnits="userSpaceOnUse">
   <stop stop-color="#623824" offset="0"/>
   <stop stop-color="#5b270f" offset="1"/>
  </linearGradient>
  <filter id="h" color-interpolation-filters="sRGB">
   <feBlend in2="BackgroundImage" mode="multiply"/>
  </filter>
  <filter id="i" color-interpolation-filters="sRGB">
   <feBlend in2="BackgroundImage" mode="darken"/>
  </filter>
  <filter id="j" x="-.018217" y="-.16325" width="1.0364" height="1.3265" color-interpolation-filters="sRGB">
   <feGaussianBlur stdDeviation="8.1973498"/>
  </filter>
  <linearGradient id="n" x1="-424.35" x2="427.4" y1="1167.1" y2="1164.1" gradientUnits="userSpaceOnUse">
   <stop stop-opacity=".63592" offset="0"/>
   <stop stop-opacity="0" offset="1"/>
  </linearGradient>
 </defs>
 <g filter="url(#i)">
  <rect width="1300" height="900" fill="#fa0050"/>
 </g>
 <g transform="translate(0 -152.36)" filter="url(#h)" opacity=".674">
  <rect transform="matrix(1 0 .55932 .82895 3.5306 1.7653)" x="-475.54" y="1097.8" width="840.16" height="120.52" ry="14.963" fill="url(#n)" filter="url(#j)" opacity="1"/>
 </g>
 <path d="m920.46 249.54 29.284 45.844s13.24 27.362 13.24 30.893 1.7653 20.301 4.4133 27.362 10.592 15.005 11.475 21.184-0.88266 25.597 0 37.072 7.0613 26.48 7.0613 26.48l-86.671 39.345s-14.488 3.7754-45.254-42.15-20.548-78.028-5.2148-100.72 16.551-44.126 43.255-51.947 28.411-33.361 28.411-33.361z" fill="#65260c" fill-rule="evenodd"/>
 <path d="m919.44 257.93 26.449 42.472s11.958 25.349 11.958 28.62c0 3.2709 1.5944 18.808 3.986 25.349 2.3916 6.5418 9.5665 13.901 10.364 19.625 0.7972 5.7241-0.79721 23.714 0 34.344 0.7972 10.63 6.3776 24.532 6.3776 24.532l-78.28 36.45s-13.085 3.4977-40.873-39.049c-27.787-42.547-18.558-72.288-4.71-93.312s14.949-40.88 39.067-48.126c24.118-7.2459 25.661-30.907 25.661-30.907z" fill="#fff" fill-rule="evenodd"/>
 <path d="m924.14 260.96-0.66199 28.024-32.217 25.376-3.31 18.977-7.9439 19.198-1.1033 6.6199 9.7092 31.114 4.1926 33.541 10.592 17.432 1.1033 29.79-22.949 3.0893s-54.063-77.233-48.105-86.942c5.9579-9.7092 14.785-56.269 18.315-58.917 3.5306-2.648 19.639-32.217 28.907-37.513 9.2679-5.296 24.714-13.019 27.362-18.536s10.371-16.329 10.371-16.329z" fill="#65260c" fill-rule="evenodd"/>
 <path d="m920.46 249.54c-6.447 10.923-15.936 20.179-27.943 26.34-31.049 15.846-69.04 6.0973-88.621-22.742l-83.564 42.746c13.516 33.208-0.59849 71.24-32.508 87.588-31.93 16.309-71.032 5.4994-90.051-24.895l-83.305 42.613c13.515 33.207-0.60064 71.237-32.508 87.586-31.93 16.31-71.029 5.5-90.049-24.895l-83.305 42.613c13.515 33.207-0.59869 71.237-32.506 87.586-31.93 16.31-71.031 5.5-90.051-24.895l-83.035 42.477h-4e-3l11.02 42.416 27.662 106.49 44.898 81.711 28.443-70.008 627.06-299.79 49.102-41.672-3.2402-5.6699-4.4121-33.541-9.7324-34.383 0.9043-7.1035s8.8281-14.122 8.8281-18.535 2.6465-19.418 2.6465-19.418l31.777-25.598 2.5-36.998s-0.01-0.0193-0.01-0.0195z" fill="url(#l)"/>
 <path d="m848.79 334.84-83.566 42.746c13.516 33.208-0.59851 71.238-32.508 87.586-31.93 16.309-71.032 5.5013-90.051-24.893l-83.305 42.613c13.515 33.207-0.59868 71.237-32.506 87.586-31.93 16.31-71.031 5.5-90.051-24.895l-83.307 42.615c13.515 33.207-0.59869 71.235-32.506 87.584-31.93 16.31-71.031 5.5019-90.051-24.893l-83.035 42.475 38.682 148.9 712.67-364.55v-2e-3l-0.71289-34.049-10.592-18.535-4.4121-33.541-9.7324-34.383 2e-3 -0.0137c-9.7768-5.133-18.441-12.657-25.021-22.35z" fill="url(#m)"/>
 <path d="m103.01 611.66 44.898 81.712 83.036-42.475-44.899-81.713zm205.59-105.17 44.898 81.712 83.306-42.613-44.898-81.712zm205.86-105.31 44.899 81.713 83.306-42.613-44.899-81.713zm205.86-105.31 44.898 81.712 83.566-42.745-44.899-81.713z" fill="url(#k)" fill-rule="evenodd"/>
</svg>
