<?xml version="1.0" encoding="UTF-8"?>
<svg viewBox="0 0 106.67 106.67" xmlns="http://www.w3.org/2000/svg">
 <g fill-rule="evenodd" stroke="#000" stroke-width="1.25">
  <g stroke-linejoin="round">
   <g fill="#bdff0c">
    <path d="m75.977 34.783c1.1572-0.42209 4.7417 0.98861 3.6061-5.2807-1.1356-6.2694-0.82848-7.1808-0.82848-7.1808s7.6545 3.188 7.3455 4.7078c-0.30907 1.5198-1.6505 2.4888 0.65599 4.0778 2.3065 1.5891-1.0343 0.057501 1.512 2.7423s7.3494 3.4911 6.1308 4.0955c-1.2186 0.60439-8.7601 0.093399-11.556-0.6456s-3.0951-2.2608-4.0164 0.4737-4.0066-2.5679-2.8494-2.99z"/>
    <path d="m8.1915 70.315s4.3732 2.0824 6.745 2.2725c2.3718 0.19015 3.953 0.31691 3.953 0.31691 1.9497-0.96702 5.9446 5.2507 4.4862 4.7594-1.4584-0.49135-2.4927-0.43387-4.3275 2.6018-2.0804 3.7649-4.4621 6.6163-4.4621 6.6163s-0.53904-2.6175-0.1091-3.8936 0.49725-3.2833-1.508-3.9589c-2.0053-0.67561-5.3324-6.4654-4.7776-8.7144z"/>
   </g>
   <path d="m19.996 72.88c1.9497-0.96703-3.7449-6.3187-2.6374-10.208 1.1075-3.8897 49.077-33.597 50.415-33.35 3.0688-0.32946 3.8907 1.1014 5.466 3.0531s2.3026 2.8057 3.4597 2.3836c1.1572-0.42209 3.7708 0.2555 2.8494 2.99-0.92131 2.7345 2.2896 7.5402 1.0037 10.152-1.2859 2.6116-47.251 33.461-49.199 33.82-1.9478 0.35871-5.4127-3.5899-6.8711-4.0813-1.4584-0.49136-4.4862-4.7594-4.4862-4.7594z" fill="#ec00bb"/>
  </g>
  <g fill="none">
   <path d="m76.369 34.596s2.3084 2.6931 2.3084 2.6931"/>
   <path d="m78.678 33.249s2.5008 2.116 2.116 2.8855"/>
   <path d="m17.121 72.299s1.5389 5.771 2.116 6.9252 0.5771 0.96183 0.5771 0.96183"/>
   <path d="m19.044 72.684s0.5771 4.6168 1.5389 5.0015"/>
  </g>
  <g fill="#d4aaff">
   <path d="m42.705 43.637l9.4259-5.771 5.3863 26.162-9.0412 5.9633s-4.2321-25.008-5.771-26.354z"/>
   <path d="m31.356 81.148l-5.0015-26.354 8.6565-6.1557s5.1939 25.392 5.1939 26.546c-1.5389 1.7313-8.8488 5.9634-8.8488 5.9634z"/>
  </g>
  <path d="m20.583 67.49s-2.8855-2.5008-0.19236-5.1939 22.892-16.544 22.892-16.544" fill="none"/>
  <path d="m64.635 59.218l-4.6168-26.162s6.7328-4.6168 8.4641-3.8473c1.7313 0.76947 4.8092 22.892 4.2321 24.046-0.5771 1.1542-8.0794 5.9634-8.0794 5.9634z" fill="#d4aaff"/>
  <g fill="none">
   <path d="m53.863 40.366s11.542-10.195 13.273-9.426c1.7313 0.76947 3.655 2.3084 3.655 2.3084"/>
   <path d="m38.088 71.337s25.008-17.505 28.278-18.66c3.2702-1.1542 3.0779-1.1542 3.0779-1.1542"/>
   <path d="m85.411 26.516s-0.96183 4.2321-4.2321 5.3862"/>
   <path d="m87.142 32.095s-4.0397 3.2702-5.3863 2.116"/>
   <path d="m11.542 77.686c1.9237 1.7313 5.3863-1.3466 5.3863-1.3466"/>
   <path d="m15.005 81.725c2.6931-0.19237 1.9237-1.3466 2.6931-3.4626"/>
  </g>
 </g>
</svg>
