<?xml version="1.0" encoding="UTF-8"?>
<svg width="11.076mm" height="32.677mm" version="1.1" viewBox="0 0 39.244281 115.78522" xmlns="http://www.w3.org/2000/svg" xmlns:xlink="http://www.w3.org/1999/xlink">
 <defs>
  <linearGradient id="a">
   <stop stop-color="#fff" offset="0"/>
   <stop stop-color="#eff6ff" stop-opacity=".52941" offset="1"/>
  </linearGradient>
  <radialGradient id="ab" cx="42.01" cy="976.46" r="4.1763" gradientTransform="matrix(2.046 .20491 -.64774 6.4677 588.55 -5344.2)" gradientUnits="userSpaceOnUse" xlink:href="#a"/>
  <radialGradient id="ac" cx="52.554" cy="961.14" r=".97325" gradientTransform="matrix(5.495 -.27731 .63373 12.557 -845.33 -11094)" gradientUnits="userSpaceOnUse" xlink:href="#a"/>
  <radialGradient id="ad" cx="56.076" cy="1001.7" r=".99186" gradientTransform="matrix(3.9011 -.20867 .25551 4.7767 -418.63 -3771.4)" gradientUnits="userSpaceOnUse" xlink:href="#a"/>
  <radialGradient id="ae" cx="57.026" cy="996.63" r="1.1689" gradientTransform="matrix(3.3582 -.092473 .1118 4.06 -245.9 -3044.4)" gradientUnits="userSpaceOnUse" xlink:href="#a"/>
  <radialGradient id="af" cx="57.4" cy="1019.8" r="1.2031" gradientTransform="matrix(4.2216 -.059798 .19571 13.817 -384.5 -13067)" gradientUnits="userSpaceOnUse" xlink:href="#a"/>
  <radialGradient id="ag" cx="40.305" cy="1006.1" r="1.5846" gradientTransform="matrix(2.3394 .21477 -.25301 2.7559 200.56 -1775.2)" gradientUnits="userSpaceOnUse" xlink:href="#a"/>
  <pattern id="z" xlink:href="#r" patternTransform="matrix(.19744 0 0 .27119 16.971 956.01)"/>
  <pattern id="r" width="10" height="10" patternTransform="translate(0) scale(10)" patternUnits="userSpaceOnUse">
   <circle cx="2.567" cy=".81" r=".45"/>
   <circle cx="3.048" cy="2.33" r=".45"/>
   <circle cx="4.418" cy="2.415" r=".45"/>
   <circle cx="1.844" cy="3.029" r=".45"/>
   <circle cx="6.08" cy="1.363" r=".45"/>
   <circle cx="5.819" cy="4.413" r=".45"/>
   <circle cx="4.305" cy="4.048" r=".45"/>
   <circle cx="5.541" cy="3.045" r=".45"/>
   <circle cx="4.785" cy="5.527" r=".45"/>
   <circle cx="2.667" cy="5.184" r=".45"/>
   <circle cx="7.965" cy="1.448" r=".45"/>
   <circle cx="7.047" cy="5.049" r=".45"/>
   <circle cx="4.34" cy=".895" r=".45"/>
   <circle cx="7.125" cy=".34" r=".45"/>
   <circle cx="9.553" cy="1.049" r=".45"/>
   <circle cx="7.006" cy="2.689" r=".45"/>
   <circle cx="8.909" cy="2.689" r=".45"/>
   <circle cx="9.315" cy="4.407" r=".45"/>
   <circle cx="7.82" cy="3.87" r=".45"/>
   <circle cx="8.27" cy="5.948" r=".45"/>
   <circle cx="7.973" cy="7.428" r=".45"/>
   <circle cx="9.342" cy="8.072" r=".45"/>
   <circle cx="8.206" cy="9.315" r=".45"/>
   <circle cx="9.682" cy="9.475" r=".45"/>
   <circle cx="9.688" cy="6.186" r=".45"/>
   <circle cx="3.379" cy="6.296" r=".45"/>
   <circle cx="2.871" cy="8.204" r=".45"/>
   <circle cx="4.59" cy="8.719" r=".45"/>
   <circle cx="3.181" cy="9.671" r=".45"/>
   <circle cx="5.734" cy="7.315" r=".45"/>
   <circle cx="6.707" cy="6.513" r=".45"/>
   <circle cx="5.73" cy="9.67" r=".45"/>
   <circle cx="6.535" cy="8.373" r=".45"/>
   <circle cx="4.37" cy="7.154" r=".45"/>
   <circle cx=".622" cy="7.25" r=".45"/>
   <circle cx=".831" cy="5.679" r=".45"/>
   <circle cx="1.257" cy="8.519" r=".45"/>
   <circle cx="1.989" cy="6.877" r=".45"/>
   <circle cx=".374" cy="3.181" r=".45"/>
   <circle cx="1.166" cy="1.664" r=".45"/>
   <circle cx="1.151" cy=".093" r=".45"/>
   <circle cx="1.151" cy="10.093" r=".45"/>
   <circle cx="1.302" cy="4.451" r=".45"/>
   <circle cx="3.047" cy="3.763" r=".45"/>
  </pattern>
  <linearGradient id="v" x1="43.386" x2="56.331" y1="951.82" y2="951.82" gradientUnits="userSpaceOnUse">
   <stop stop-color="#4b0300" offset="0"/>
   <stop stop-color="#d90900" offset=".19533"/>
   <stop stop-color="#d90900" offset=".25809"/>
   <stop stop-color="#e4625d" offset=".33534"/>
   <stop stop-color="#d90900" offset=".49466"/>
   <stop stop-color="#d90900" offset=".58156"/>
   <stop stop-color="#730500" offset="1"/>
  </linearGradient>
  <pattern id="x" xlink:href="#t" patternTransform="matrix(.80576 0 0 .84391 30.25 944.62)"/>
  <pattern id="t" width="10" height="10" patternTransform="translate(0) scale(10)" patternUnits="userSpaceOnUse">
   <circle cx="2.567" cy=".81" r=".45"/>
   <circle cx="3.048" cy="2.33" r=".45"/>
   <circle cx="4.418" cy="2.415" r=".45"/>
   <circle cx="1.844" cy="3.029" r=".45"/>
   <circle cx="6.08" cy="1.363" r=".45"/>
   <circle cx="5.819" cy="4.413" r=".45"/>
   <circle cx="4.305" cy="4.048" r=".45"/>
   <circle cx="5.541" cy="3.045" r=".45"/>
   <circle cx="4.785" cy="5.527" r=".45"/>
   <circle cx="2.667" cy="5.184" r=".45"/>
   <circle cx="7.965" cy="1.448" r=".45"/>
   <circle cx="7.047" cy="5.049" r=".45"/>
   <circle cx="4.34" cy=".895" r=".45"/>
   <circle cx="7.125" cy=".34" r=".45"/>
   <circle cx="9.553" cy="1.049" r=".45"/>
   <circle cx="7.006" cy="2.689" r=".45"/>
   <circle cx="8.909" cy="2.689" r=".45"/>
   <circle cx="9.315" cy="4.407" r=".45"/>
   <circle cx="7.82" cy="3.87" r=".45"/>
   <circle cx="8.27" cy="5.948" r=".45"/>
   <circle cx="7.973" cy="7.428" r=".45"/>
   <circle cx="9.342" cy="8.072" r=".45"/>
   <circle cx="8.206" cy="9.315" r=".45"/>
   <circle cx="9.682" cy="9.475" r=".45"/>
   <circle cx="9.688" cy="6.186" r=".45"/>
   <circle cx="3.379" cy="6.296" r=".45"/>
   <circle cx="2.871" cy="8.204" r=".45"/>
   <circle cx="4.59" cy="8.719" r=".45"/>
   <circle cx="3.181" cy="9.671" r=".45"/>
   <circle cx="5.734" cy="7.315" r=".45"/>
   <circle cx="6.707" cy="6.513" r=".45"/>
   <circle cx="5.73" cy="9.67" r=".45"/>
   <circle cx="6.535" cy="8.373" r=".45"/>
   <circle cx="4.37" cy="7.154" r=".45"/>
   <circle cx=".622" cy="7.25" r=".45"/>
   <circle cx=".831" cy="5.679" r=".45"/>
   <circle cx="1.257" cy="8.519" r=".45"/>
   <circle cx="1.989" cy="6.877" r=".45"/>
   <circle cx=".374" cy="3.181" r=".45"/>
   <circle cx="1.166" cy="1.664" r=".45"/>
   <circle cx="1.151" cy=".093" r=".45"/>
   <circle cx="1.151" cy="10.093" r=".45"/>
   <circle cx="1.302" cy="4.451" r=".45"/>
   <circle cx="3.047" cy="3.763" r=".45"/>
  </pattern>
  <pattern id="aa" xlink:href="#s" patternTransform="matrix(.75 0 0 .8 22.627 939.04)"/>
  <pattern id="s" width="10" height="10" patternTransform="translate(0) scale(10)" patternUnits="userSpaceOnUse">
   <circle cx="2.567" cy=".81" r=".45"/>
   <circle cx="3.048" cy="2.33" r=".45"/>
   <circle cx="4.418" cy="2.415" r=".45"/>
   <circle cx="1.844" cy="3.029" r=".45"/>
   <circle cx="6.08" cy="1.363" r=".45"/>
   <circle cx="5.819" cy="4.413" r=".45"/>
   <circle cx="4.305" cy="4.048" r=".45"/>
   <circle cx="5.541" cy="3.045" r=".45"/>
   <circle cx="4.785" cy="5.527" r=".45"/>
   <circle cx="2.667" cy="5.184" r=".45"/>
   <circle cx="7.965" cy="1.448" r=".45"/>
   <circle cx="7.047" cy="5.049" r=".45"/>
   <circle cx="4.34" cy=".895" r=".45"/>
   <circle cx="7.125" cy=".34" r=".45"/>
   <circle cx="9.553" cy="1.049" r=".45"/>
   <circle cx="7.006" cy="2.689" r=".45"/>
   <circle cx="8.909" cy="2.689" r=".45"/>
   <circle cx="9.315" cy="4.407" r=".45"/>
   <circle cx="7.82" cy="3.87" r=".45"/>
   <circle cx="8.27" cy="5.948" r=".45"/>
   <circle cx="7.973" cy="7.428" r=".45"/>
   <circle cx="9.342" cy="8.072" r=".45"/>
   <circle cx="8.206" cy="9.315" r=".45"/>
   <circle cx="9.682" cy="9.475" r=".45"/>
   <circle cx="9.688" cy="6.186" r=".45"/>
   <circle cx="3.379" cy="6.296" r=".45"/>
   <circle cx="2.871" cy="8.204" r=".45"/>
   <circle cx="4.59" cy="8.719" r=".45"/>
   <circle cx="3.181" cy="9.671" r=".45"/>
   <circle cx="5.734" cy="7.315" r=".45"/>
   <circle cx="6.707" cy="6.513" r=".45"/>
   <circle cx="5.73" cy="9.67" r=".45"/>
   <circle cx="6.535" cy="8.373" r=".45"/>
   <circle cx="4.37" cy="7.154" r=".45"/>
   <circle cx=".622" cy="7.25" r=".45"/>
   <circle cx=".831" cy="5.679" r=".45"/>
   <circle cx="1.257" cy="8.519" r=".45"/>
   <circle cx="1.989" cy="6.877" r=".45"/>
   <circle cx=".374" cy="3.181" r=".45"/>
   <circle cx="1.166" cy="1.664" r=".45"/>
   <circle cx="1.151" cy=".093" r=".45"/>
   <circle cx="1.151" cy="10.093" r=".45"/>
   <circle cx="1.302" cy="4.451" r=".45"/>
   <circle cx="3.047" cy="3.763" r=".45"/>
  </pattern>
  <pattern id="y" xlink:href="#u" patternTransform="matrix(.79509 .26585 -.59594 1.7823 6.3921 947.92)"/>
  <pattern id="u" width="2" height="1" patternTransform="translate(0) scale(10)" patternUnits="userSpaceOnUse">
   <rect y="-.5" width="1" height="2"/>
  </pattern>
  <linearGradient id="w" x1="50.647" x2="49.627" y1="1054.1" y2="956.32" gradientUnits="userSpaceOnUse">
   <stop stop-color="#eff6ff" offset="0"/>
   <stop stop-color="#eff6ff" offset=".86796"/>
   <stop stop-color="#fff" offset=".88238"/>
   <stop stop-color="#e8e8e8" offset="1"/>
  </linearGradient>
 </defs>
 <g transform="translate(-30.164 -943.34)">
  <path d="m50.205 947.71-5.4801 1.149-0.97227 1.591c0.0648 0.57393-0.08214 1.0632 0.53033 1.8562-0.58556 0.36231-1.4059 0.63656-0.17678 1.6794-0.51286 0.82311-0.13524 1.2393 0.88388 2.2981-0.54551 8.2087-2.9562 13.349-5.1265 18.915-2.4258 6.0704-5.0889 13.468-5.1788 19.197 0.01249 0.19548-0.01492 0.31622 0.03155 0.69365l2.142 6.4493c0.17164 2.3539-1.2513 4.5628-2.2981 6.8059l0.44194 33.499-0.61872 5.5685c0.48218 1.832 1.295 3.5262 3.182 4.7729 3.7763 1.4266 7.5465 2.8855 11.667 2.4749 5.6882 0.085 10.218-1.6829 14.142-4.4194 2.2457-10.286 0.70711-27.872 1.0607-41.808l-2.2981-6.8943 2.1736-3.9699c0.7879-0.10805 1.1044-0.74221 0.37408-1.7075l0.12232-0.4009c0.48399-0.30489 1.5951-0.46822 0.304-1.7517-0.22522-0.24034 0.18351-0.8514-0.17142-2.3584 0.46839-0.58888 0.20047-0.82444-0.24686-1.3486l-0.52275-0.30715c0.0046-0.81202-0.08171-1.6089-0.775-2.3046l-5.9425-17.671-2.4749-12.374-0.26516-1.37c0.58155-0.0906 0.86124-0.95638 0.97227-1.6352l-0.08839-2.3865-0.44194-2.4749z" fill="url(#w)" fill-rule="evenodd"/>
  <path d="m35.018 1041.7c2.0124 0.7401 2.8756 3.2069 4.226 2.9036 3.2993-0.7411 7.7569-1.1645 10.658-1.1853 3.0308-0.022 4.7795 0.2845 8.4896 0.7592 2.0173 0.2582 5.2344-2.3363 6.0467-3.9697 0.02293 2.8873-0.36741 5.3478-2.1951 6.1091-1.2575 0.5238-3.6501 1.5089-5.0922 1.9117-2.3124 0.6459-4.752 1.0801-6.9655 1.1227-2.6015 0.05-5.9291-0.1887-8.8162-0.8903-1.6019-0.3893-3.9192-1.0075-4.7953-1.3765-1.5874-0.6686-1.6348-3.0054-1.5556-5.3845z" fill="#c3d7e3" fill-rule="evenodd"/>
  <path d="m34.325 1045.1c0.21567 1.7254 8.8456 4.6303 15.541 4.4347 9.2987-0.2717 14.231-3.678 14.231-4.8034l-0.72227 5.4043s-8.1184 4.2625-12.551 4.4194c-5.0074 0.1772-14.584-3.3588-14.584-3.3588z" fill="#92c8e7" fill-rule="evenodd" stroke="#f00" stroke-width=".35433"/>
  <path d="m43.058 969.02s4.6048-0.33576 6.881-0.3163c2.321 0.0199 6.8823 0.44257 6.8823 0.44257" fill="none" stroke="#b5d1f3" stroke-width="1.063"/>
  <path d="m43.31 969.45s-3.7586 11.875-5.1265 17.943c-0.51235 2.2728-1.2974 4.5692-1.149 6.8943 0.16259 2.5488 1.9742 5.0361 1.8347 7.5862-0.1399 2.5572-1.9792 4.6666-2.3802 7.1961-1.1623 7.3319 1.6945 21.81 1.6945 21.81s1.8501-12.062 1.0607-18.031c-0.17103-1.2931-1.242-2.4079-1.2374-3.7123 0.0081-2.3067 1.7966-4.2962 2.389-6.5165 0.04608-0.1727 3.9923 0.3708 8.1217 0.249 3.6802-0.1085 7.6525-0.8758 7.609-1.1571-0.365-2.3578-4.9696-0.962-9.2732-1.2168-3.3674-0.1996-5.7866-1.0519-6.1801-1.8568-0.99231-2.0297-1.5104-2.6918-1.5173-4.9698-0.02482-8.1907 4.1543-24.218 4.1543-24.218z" fill="#c3d7e3" fill-rule="evenodd"/>
  <path d="m43.31 969.45s-3.7586 11.875-5.1265 17.943c-0.51235 2.2728-1.2974 4.5693-1.149 6.8943 0.16259 2.5488 1.9742 5.0362 1.8347 7.5863-0.1399 2.5572-1.9792 4.6666-2.3802 7.1961-1.1623 7.3319 1.6945 21.81 1.6945 21.81s1.8501-12.062 1.0607-18.031c-0.17102-1.2931-1.242-2.4079-1.2374-3.7123 8e-3 -2.3067 1.7966-4.2962 2.389-6.5165 0.0461-0.1727 3.9923 0.3708 8.1217 0.249 3.6802-0.1085 7.6525-0.8758 7.609-1.1571-0.365-2.3578-4.9696-0.962-9.2732-1.2168-3.3674-0.1996-5.7866-1.0519-6.1801-1.8568-0.99231-2.0297-1.5104-2.6918-1.5173-4.9698-0.0248-8.1906 4.1542-24.218 4.1542-24.218z" fill="url(#x)" fill-rule="evenodd" opacity=".167"/>
  <path d="m35.018 1041.7c2.0124 0.7401 2.8756 3.2069 4.226 2.9036 3.2993-0.7411 7.7569-1.1645 10.658-1.1853 3.0308-0.022 4.7795 0.2845 8.4896 0.7592 2.0173 0.2582 5.2344-2.3363 6.0467-3.9697 0.0229 2.8873-0.36741 5.3478-2.1951 6.1091-1.2575 0.5238-3.6501 1.5089-5.0922 1.9117-2.3124 0.6459-4.752 1.0801-6.9655 1.1227-2.6015 0.05-5.9291-0.1887-8.8162-0.8903-1.6019-0.3893-3.9192-1.0075-4.7953-1.3765-1.5874-0.6686-1.6348-3.0054-1.5556-5.3845z" fill="url(#aa)" fill-rule="evenodd" opacity=".218"/>
  <path d="m34.325 1045.1c0.21567 1.7254 8.8456 4.6303 15.541 4.4347 9.2987-0.2717 14.231-3.678 14.231-4.8034l-0.72227 5.4043s-8.1184 4.2625-12.551 4.4194c-5.0074 0.1772-14.584-3.3588-14.584-3.3588z" fill="url(#y)" fill-rule="evenodd" opacity=".216" stroke="#f00" stroke-width=".35433"/>
  <path transform="translate(0 946.06)" d="m50.336 0.82812c-0.48648-0.020631-1.0033-0.014554-1.6445 0.025391-1.2824 0.07989-2.0925 0.25979-2.9824 0.65625-0.63927 0.2848-1.0938 0.57792-1.498 0.99414-0.40328 0.41526-0.96797 1.1422-0.92383 1.8301 0.0376 0.58596 0.16316 1.1425 0.41211 1.5664-0.38884 0.20776-0.71328 0.58759-0.71484 1.0215-0.0023 0.64694 0.25386 0.85824 0.66016 0.99805-0.41844 0.33187-0.4625 0.70632-0.48047 0.98828-0.01916 0.30069 0.18233 0.7704 0.33984 0.9082 0.18175 0.15901 0.51719 0.35311 1.0664 0.55859-0.20208 2.1279-0.58018 4.3976-1.127 6.3066-2.4426 8.5284-5.5759 15.471-7.5078 22.768-0.65986 2.4923-1.2932 5.2348-1.2754 8.0566 0.0017 0.27531 0.0199 0.57684 0.03125 0.86914 0.11487-0.28268 0.37138-0.49245 0.69531-0.49023 0.43867 0.0035 0.63301 0.41222 0.62891 0.84375-0.0041 0.43152-0.20586 0.79206-0.64453 0.78906-0.29865-0.0024-0.52899-0.18824-0.65039-0.43945 0.10845 1.5385 0.39026 3.197 1.0508 4.5918 0.24521 0.51782 0.31115 1.7582 0.26367 2.6543-0.0731 1.3796-0.46914 1.6868-1.0332 3.1699-0.25074 0.6593-1.1374 2.244-1.207 3.2285-0.12954 1.8315-0.10669 2.739 0.01563 4.584 0.36507 5.5069 0.29652 7.1138 0.41211 12.832 0.0489 2.4193 0.03133 9.0705 0.06445 11.861 0.01655 1.3954-0.01673 2.5585-0.03906 3.5957-0.02234 1.0373-0.35186 2.1905-0.4043 2.4434-0.30975 1.4939 0.10465 3.6719 0.45898 4.9648 0.19316 0.7048 0.97947 2.1171 1.8418 2.9824 0.83401 0.8369 1.8903 1.3564 2.959 1.8652 3.0158 1.4357 6.8911 1.5957 10.041 1.6582 3.4799 0.0691 7.8185-0.52809 11.129-1.7129 1.5408-0.55147 3.3697-1.9958 4.3594-3.2363 1.0112-1.2675 1.0956-3.136 1.2109-4.1055 0.12996-1.0924-0.36558-2.5089-0.41211-3.4512-0.27942-5.658-0.23586-11.07-0.23242-16.807 0.0028-4.669 0.2854-9.6639 0.41797-14.262 0.02977-1.0325 0.21824-2.3767 0.03906-3.7637-0.21633-1.6755-1.3628-3.156-1.6719-4.2715-0.31139-1.1238-0.5406-1.7148-0.53125-2.7617 0.0089-0.9966 0.51777-1.6816 0.78906-3.1973 0.02508-0.14009 0.07106-0.31578 0.10547-0.4707-0.35978-0.03449-0.60891-0.35746-0.69922-0.75-0.10561-0.45906 0.01774-0.88772 0.48437-0.97852 0.2163-0.04207 0.42187 0.01583 0.59375 0.12891 0.0378-0.15603 0.07347-0.30408 0.10938-0.46289-0.40519-0.07407-0.58233-0.4789-0.56055-0.91406 0.02347-0.4687 0.25987-0.85418 0.73633-0.83398 0.04132 0.0018 0.07441 0.02158 0.11328 0.0293 0.02611-0.28809 0.04099-0.57078 0.0293-0.83984-0.02282-0.52528-0.09729-1.0828-0.19531-1.6465-0.07305 0.04963-0.15751 0.08619-0.25391 0.09766-0.35718 0.0424-0.56588-0.26974-0.61523-0.62109-0.04934-0.35137 0.07251-0.66658 0.42969-0.70898 0.06731-8e-3 0.1294 0.0042 0.19141 0.01758-0.24599-1.0895-0.5345-2.1453-0.73047-2.998-1.611-7.0103-3.8443-11.81-5.6387-18.695-0.49457-1.8978-1.1249-3.962-1.4316-5.7871-0.30839-1.8349-1.3784-5.5954-1.4219-5.9668 0.53463 0.0661 1.0865-0.87635 1.1035-1.2109 0.03186-0.62521-0.21255-0.69869-0.37695-1.0762 0.20705-0.23051 0.6654-0.55634 0.5918-1.1309-0.04959-0.38707-0.42269-0.91524-0.6582-1.1797 0.17554-0.25536 0.40182-0.827 0.375-1.1191-0.0502-0.5474-0.29536-0.76915-0.5332-1.1621-0.25601-1.0232-1.027-1.6425-1.793-2.0293-0.81122-0.40965-1.8633-0.61323-2.3945-0.67578-0.52362-0.06166-0.98031-0.10828-1.4668-0.12892zm14.375 43.16c0.02565 0.11362 0.04588 0.22763 0.07031 0.3418 0.06938 0.06078 0.1243 0.15136 0.14062 0.26758 0.01293 0.09208-0.0057 0.17226-0.03711 0.24024 0.02349 0.12206 0.05308 0.24365 0.07422 0.36523 0.19763-0.13427 0.30361-0.38408 0.26758-0.64062-0.04006-0.28515-0.24859-0.51642-0.51562-0.57422zm0.17383 0.84961c-0.03267-0.16972-0.06723-0.33825-0.10352-0.50781-0.06708-0.05876-0.14724-0.08902-0.22266-0.08008-0.15341 0.01821-0.32702 0.1972-0.29492 0.42578 0.0321 0.22862 0.24893 0.36195 0.40234 0.34375 0.09162-0.01088 0.17218-0.08087 0.21875-0.18164zm0.24023 2.8516c-0.01115 0.123-0.02253 0.246-0.03906 0.37109 0.16696 0.05934 0.30782 0.24623 0.29492 0.50391-0.01526 0.30494-0.2348 0.50474-0.43945 0.49609-0.01224-4.79e-4 -0.02461-0.0097-0.03711-0.01172-0.02501 0.12004-0.04139 0.2401-0.06836 0.35938 0.03124 0.0057 0.05379 0.02395 0.08789 0.02539 0.47646 0.0202 0.83981-0.38286 0.86328-0.85156 0.02143-0.42806-0.25279-0.81133-0.66211-0.89258zm-0.2207 1.3594c0.06892-0.3308 0.13846-0.66167 0.18164-0.98828-0.03062-0.01088-0.06009-0.0261-0.0918-0.02734-0.20465-0.0087-0.47496 0.18922-0.49024 0.49414-0.01435 0.2867 0.20402 0.49048 0.40039 0.52148zm-0.17774 0.82227c-0.03507 0.14476-0.07026 0.28478-0.10547 0.42578 0.051 0.06555 0.09541 0.14167 0.11719 0.23633 0.06871 0.29865-0.08863 0.54304-0.28906 0.58203-0.0066 0.0013-0.01471-0.0028-0.02148-2e-3 -0.03002 0.12482-0.05395 0.23978-0.08008 0.35742 0.06094 0.0058 0.11796 0.02288 0.18555 0.0098 0.46664-0.0908 0.70717-0.56636 0.60156-1.0254-0.05666-0.24626-0.20928-0.45311-0.4082-0.58398zm-0.29883 1.2422c0.06294-0.26176 0.12211-0.5311 0.19336-0.81641-0.1099-0.14123-0.26739-0.21602-0.4043-0.18945-0.20043 0.03897-0.4066 0.29317-0.33789 0.5918 0.06645 0.28884 0.34891 0.43943 0.54883 0.41406zm-29.707-2.0352c-0.01711-0.24273-0.02017-0.46798-0.0293-0.70312-0.04069 0.10013-0.06728 0.20744-0.06836 0.32031-0.0013 0.13774 0.04074 0.26504 0.09766 0.38281zm14.432-46.449c1.0681-0.013 1.8208 0.034866 2.5078 0.12891 0.59463 0.0814 1.8368 0.40979 2.1699 0.52344 0.59763 0.20598 0.64016 0.60651 0.69141 0.9043 0.55761 0.38146 0.3662 0.93335 0.1822 1.196-0.18399 0.26261-0.83678-0.31895-1.9947-0.53776-0.97185-0.18365-2.1896-0.42496-3.4205-0.42823-1.1371-0.00303-1.6198-0.015649-3.2474 0.39894-0.29059 0.074019-0.35812 0.34378-0.07227 0.52734 0.16622 0.10674 0.52125-0.059924 0.79297-0.099609 1.1239-0.16415 2.2538-0.31965 3.3906-0.23828 1.0668 0.0764 2.1431 0.1791 3.1699 0.47656 0.37978 0.11002 0.90627 0.33908 1.2598 0.53516 0.2439 0.19361 0.25807 0.35912 0.18164 0.60352-0.77215-0.37102-1.643-0.67666-2.4922-0.82617-1.1396-0.20063-2.7361-0.33615-3.6934-0.28125-1.0087 0.057852-2.2104 0.14244-2.8909 0.28889-0.36306 0.078134-0.79022 0.080259-1.1992 0.1087-0.02001-0.25594-0.25879-1.2593-0.14775-1.6658 0.14118-0.51688 1.1002-0.94834 1.5687-1.1515 1.1767-0.51027 2.1753-0.45014 3.2434-0.46312zm0.67946 3.4544c1.1513 0.076404 2.154 0.2059 3.288 0.47913 0.55591 0.13394 1.1287 0.27196 1.588 0.62623 0.3949 0.30461 0.46453 0.3533 0.39771 0.66881-0.69703-0.3504-2.2344-0.78164-3.2129-0.9082-1.0608-0.13721-2.0571-0.12398-3.1953-0.14648-0.91474-0.018086-2.9826 0.25623-4.1492 0.54871-0.08781 0.022-0.34067 0.091169-0.50566-0.18857-0.16499-0.27974 0.05328-0.35561 0.26733-0.5751 0.18813-0.072385 1.144-0.26185 1.3959-0.29799 1.0366-0.14857 1.9388-0.18645 2.6364-0.21375 0.69754-0.027304 1.1395-0.016023 1.4898 0.00722zm-0.97633 1.1589c1.5377 0.018091 2.9753-0.027179 4.4609 0.40234 0.50481 0.14595 1.4597 0.42794 1.6119 0.539 0.15219 0.11106 0.15116 0.37408 0.13807 0.41999-0.04861 0.17053-0.09624 0.4624-0.36708 0.42174s-0.7815-0.294-1.2608-0.43285c-1.5312-0.44362-2.9476-0.43967-4.5362-0.45374-1.0749-0.00999-2.9666 0.39698-3.7715 1.0254-0.23401-0.07697-0.43526-0.058955-0.63637-0.21703-0.50342-0.39568 0.1378-0.91345 0.39809-1.0662 0.16009-0.09957 0.86493-0.29092 1.0723-0.32422 1.1022-0.177 1.7687-0.32765 2.8906-0.31445zm2.9619 1.7061c0.54331 0.10569 1.0826 0.29577 1.6263 0.40479 0.4573 0.091697 0.78841 0.65213 0.88415 0.73289 0.0017 0.0014 0.21438 4.1332 0.58425 6.334 0.33452 1.9904 0.96421 4.0425 1.4453 5.8887 1.8103 6.9467 3.6888 12.644 5.2793 19.564 0.1915 0.8333 0.42932 1.6643 0.63476 2.4746 0.04103-0.20976 0.16302-0.37982 0.41211-0.44336 0.42272-0.1078 0.83743 0.18571 0.96289 0.60156 0.12546 0.41586-0.06556 0.86483-0.48828 0.97266-0.30278 0.07722-0.54417-0.08159-0.70508-0.32812 0.06725 0.30604 0.12834 0.60953 0.17578 0.90625 0.17031 0.11779 0.3102 0.28732 0.37891 0.49414 0.12252 0.3688 0.0013 0.75546-0.29492 0.95703-0.01375 0.20744-0.03679 0.41998-0.06445 0.63672 0.07899-0.11518 0.18709-0.21106 0.35937-0.25195 0.46182-0.10961 0.90761 0.21756 1.0352 0.67188 0.12754 0.45431-0.09091 0.93922-0.55274 1.0488s-0.79238-0.2703-0.91992-0.72461c-0.0099-0.0354-0.0085-0.06852-0.01562-0.10352-0.06331 0.36765-0.14282 0.75507-0.21875 1.1348 0.03358 0.0023 0.06898-0.0083 0.10156-2e-3 0.32708 0.06355 0.60517 0.32826 0.70508 0.66797 0.1332 0.45293-0.07864 0.94019-0.53906 1.0547-0.23466 0.05835-0.43604-0.01297-0.5957-0.1543-0.26837 1.0305-0.88908 2.286-0.90234 3.7695-0.01142 1.2775 0.24344 2.1768 0.55273 3.293 0.42482 1.5331 1.2648 3.0181 1.4004 4.0684 0.11858 0.9184-0.1034 1.6229-0.14062 2.9141-0.13505 4.6841 0.06919 10.004 0.06641 14.621-0.0034 5.6921 0.03994 10.343 0.32422 16.1 0.02197 0.44475-0.0082 2.0339 0.0039 2.5234-3.028-0.83086-5.6444-1.5101-8.6328-1.8203-1.5635-0.16232-3.6807-0.27835-5.252-0.24023-3.6061 0.08749-6.3388 0.65968-9.875 1.3691-0.61854 0.1241-3.3688 0.59419-3.9512 1.0918 0.03181-0.18669 0.1582-1.3652 0.1582-1.3652 0.04677-0.50474 0.27772-1.1137 0.30078-2.1855s0.04983-2.3811 0.0332-3.7871c-0.03326-2.812 0.03694-9.5767-0.01172-11.984-0.115-5.6897-0.08493-7.5658-0.4043-13.414-0.08472-1.5514 0.02559-2.197 0.09961-3.627 0.03021-0.5837 0.63549-2.0675 0.94336-2.877 0.5202-1.3678 0.99568-1.9137 1.084-3.5801 0.05197-0.9809 0.18814-2.2-0.37109-3.3809-0.18647-0.39376-0.32736-0.87199-0.44727-1.3828-0.08374 0.03927-0.17733 0.06445-0.28906 0.06445-0.47696-1e-5 -0.82031-0.41946-0.82031-0.88867 0-0.46919 0.34335-0.88672 0.82031-0.88672 0.0023 0 0.0036 0.0019 0.0059 2e-3 -0.0897-0.81222-0.13812-1.637-0.14453-2.3906-0.01531 8.64e-4 -0.02513 0.0098-0.04102 0.0098-0.47696-1e-5 -0.82031-0.41946-0.82031-0.88867 0-0.4692 0.34335-0.88867 0.82031-0.88867 0.04229 0 0.07114 0.02067 0.10938 0.02734 0.06248-0.79642 0.16901-1.607 0.30664-2.4258-0.11947-0.12755-0.19336-0.30255-0.19336-0.49023 0-0.28016 0.16063-0.53382 0.40234-0.63672 0.16264-0.81438 0.34282-1.6305 0.54688-2.4434 1.9874-7.9172 5.4801-15.023 7.0645-23.199 0.42489-2.1926 0.67019-6.3373 0.687-6.5567 0.22443-0.090487 0.8156-0.57282 1.1046-0.71255 0.94902-0.45879 2.1435-0.43972 2.9878-0.44544 0.82208-0.00557 1.5073-0.044782 2.284 0.10629zm-14.675 33.251c-0.07525 0.37678-0.14602 0.75235-0.20898 1.127 0.11174 0.1193 0.26297 0.19726 0.44141 0.19727 0.36921 0 0.53711-0.30672 0.53711-0.66992 0-0.36319-0.1679-0.70508-0.53711-0.70508-0.08441 0-0.16078 0.02028-0.23242 0.05078zm-0.51562 3.5527c-0.0098 0.12474-8e-3 0.24518-0.01563 0.36914 0.18254 0.05062 0.37109 0.2321 0.37109 0.49219 0 0.27989-0.21788 0.4708-0.41211 0.50195-0.0012 0.10418-0.01432 0.21298-0.01367 0.31641 1.21e-4 0.01923 0.0018 0.04122 2e-3 0.06055 0.44438-0.02512 0.65234-0.40188 0.65234-0.85547 0-0.4276-0.19104-0.8162-0.58398-0.88477zm-0.05664 1.3633c0.0037-0.32729 0.02049-0.66032 0.04102-0.99414-0.0317-0.0088-0.06344-0.02148-0.09375-0.02148-0.20487 0-0.41406 0.20842-0.41406 0.51367 0 0.30526 0.2092 0.51367 0.41406 0.51367 0.01702 0 0.03513-0.0089 0.05273-0.01172zm0.13281 2.7676c0.01405 0.12717 0.02249 0.25496 0.03906 0.38086 0.19614 0.02696 0.41992 0.22024 0.41992 0.50391 0 0.20035-0.11513 0.35388-0.25 0.43945 0.02542 0.12741 0.04536 0.26184 0.07422 0.38477 0.27375-0.12836 0.4043-0.44148 0.4043-0.80078 0-0.46692-0.21535-0.90395-0.6875-0.9082zm0.20898 1.3242c-0.06191-0.31032-0.12677-0.61557-0.16992-0.94336-0.01493-0.0021-0.03043-0.0098-0.04492-0.0098-0.20487 0-0.41406 0.20842-0.41406 0.51367s0.2092 0.51562 0.41406 0.51562c0.0704 0 0.14423-0.03137 0.21484-0.07617zm25.096 0.2793c0.0276-0.10596 0.06927-0.22136 0.08789-0.32227-0.08423-0.06598-0.15879-0.15197-0.19336-0.26953-0.08668-0.29466 0.10497-0.55824 0.30273-0.60742 0.01916-0.0048 0.04043 0.0011 0.06055 0 0.02458-0.12345 0.04575-0.24436 0.07031-0.36719-0.07879-0.0054-0.15757-0.01425-0.23828 0.0059-0.46043 0.11448-0.55704 0.54901-0.42383 1.002 0.06531 0.22208 0.18038 0.42263 0.33398 0.55859zm0.25781-1.1992c-0.0574 0.28826-0.11237 0.56865-0.16406 0.85742-0.0011 0.0061-0.0047 0.01337-0.0059 0.01953 0.1269 0.09941 0.28152 0.14475 0.40039 0.11524 0.19776-0.04917 0.34059-0.30103 0.25391-0.5957-0.07827-0.26608-0.2968-0.4063-0.48438-0.39648zm0.28906-1.502c0.03747-0.21758 0.06696-0.4307 0.09375-0.64062-0.11624 0.16951-0.14366 0.39405-0.09375 0.64062zm0.1582-1.2773c0.01322-0.19938 0.01781-0.3941 0.0098-0.58008-0.01225-0.28199-0.04612-0.57314-0.09375-0.87109-0.10684-0.07389-0.22273-0.13161-0.34961-0.15234-0.10972-0.01793-0.22385-0.01445-0.33789 0.01758-0.45616 0.12811-0.53775 0.56494-0.38867 1.0137 0.14907 0.44873 0.49697 0.81367 0.95312 0.68555 0.08125-0.02282 0.14283-0.0696 0.20703-0.11328zm-0.25977-2.3574c-0.05835-0.26555-0.11271-0.53084-0.18164-0.80274-0.0286 0.14622-0.02419 0.30966 0.02734 0.48047 0.0356 0.11799 0.09056 0.2246 0.1543 0.32227zm0.78906-3.0664c0.25691 0.02856 0.48964 0.21696 0.5918 0.47266 0.13621 0.34093 0.0087 0.72865-0.33789 0.8457-0.34656 0.11708-0.63137-0.15126-0.76758-0.49219-0.13621-0.34092-0.09461-0.68176 0.25195-0.79883 0.08664-0.02926 0.17608-0.03686 0.26172-0.02734zm-21.502 0.08789c-0.36921 0-0.63476 0.32431-0.63476 0.6875 0 0.36322 0.26555 0.68749 0.63476 0.6875 0.36921 0 0.53711-0.30672 0.53711-0.66992 0-0.36319-0.1679-0.70508-0.53711-0.70508zm-2.1055 0.02344c-0.36921 0-0.63477 0.3243-0.63477 0.6875 0 0.36321 0.26556 0.68749 0.63477 0.6875 0.36921 0 0.53711-0.30478 0.53711-0.66797 0-0.3632-0.1679-0.70703-0.53711-0.70703zm5.957 0.02344c-0.36921 0-0.63477 0.3243-0.63477 0.6875 0 0.36321 0.26556 0.68749 0.63477 0.6875 0.36921 0 0.53711-0.30478 0.53711-0.66797 0-0.3632-0.1679-0.70703-0.53711-0.70703zm14.893 0c-0.36921 0-0.63477 0.3243-0.63477 0.6875 0 0.36321 0.26555 0.68749 0.63477 0.6875 0.36921 0 0.53711-0.30478 0.53711-0.66797 0-0.3632-0.1679-0.70703-0.53711-0.70703zm-3.1074 0.07031c-0.36921 0-0.63477 0.32625-0.63476 0.68945 0 0.36321 0.26556 0.68749 0.63476 0.6875 0.36921 0 0.53711-0.30673 0.53711-0.66992 0-0.3632-0.1679-0.70703-0.53711-0.70703zm-8.1387 0.04883c-0.36921 0-0.63476 0.32431-0.63476 0.6875 0 0.36322 0.26556 0.68749 0.63476 0.6875 0.36921 0 0.53711-0.30672 0.53711-0.66992 0-0.36321-0.1679-0.70508-0.53711-0.70508zm13.973 0.03516c-0.04221-0.0058-0.08388-0.0028-0.12109 0.0098-0.14885 0.05029-0.27806 0.26648-0.18945 0.48828 0.08861 0.22189 0.33942 0.30996 0.48828 0.25976 0.14884-0.05028 0.23901-0.2528 0.15039-0.47461-0.06646-0.16642-0.20149-0.26569-0.32812-0.2832zm-10.004 0.04883c-0.08625-0.0014-0.17294 0.01546-0.25586 0.05273-0.33168 0.14913-0.33757 0.49208-0.16406 0.81836s0.48863 0.56512 0.82031 0.41602c0.33168-0.14913 0.41569-0.54678 0.24219-0.87305-0.13013-0.24473-0.38384-0.40988-0.64258-0.41406zm-15.832 0.015616c0.15858 0 0.35938 0.16215 0.35938 0.39844 0 0.2363-0.20079 0.39844-0.35938 0.39844-0.15858 0-0.32031-0.16214-0.32031-0.39844 0-0.23629 0.16173-0.39844 0.32031-0.39844zm4.3652 0.02344c0.15858 0 0.35938 0.16215 0.35938 0.39844 0 0.2363-0.20079 0.39844-0.35938 0.39844-0.15858 0-0.32031-0.16214-0.32031-0.39844 0-0.23629 0.16173-0.39844 0.32031-0.39844zm-2.1055 0.02344c0.15858 0 0.35938 0.16215 0.35938 0.39844s-0.20079 0.39844-0.35938 0.39844c-0.15858 0-0.32031-0.16215-0.32031-0.39844s0.16173-0.39844 0.32031-0.39844zm5.957 0.02344c0.15858 0 0.35938 0.16214 0.35938 0.39844 0 0.23629-0.20079 0.39844-0.35938 0.39844-0.15858 0-0.32031-0.16215-0.32031-0.39844 0-0.2363 0.16173-0.39844 0.32031-0.39844zm14.893 0c0.15858 0 0.35938 0.16214 0.35938 0.39844 0 0.23629-0.20079 0.39844-0.35938 0.39844-0.15858 0-0.32031-0.16215-0.32031-0.39844 0-0.2363 0.16173-0.39844 0.32031-0.39844zm-3.1074 0.07227c0.15858 0 0.35938 0.16214 0.35938 0.39844 0 0.23629-0.20079 0.39648-0.35938 0.39648-0.15858 0-0.32031-0.16019-0.32031-0.39648 0-0.2363 0.16173-0.39844 0.32031-0.39844zm-8.1387 0.04687c0.15858 0 0.35938 0.16215 0.35938 0.39844 0 0.2363-0.20079 0.39844-0.35938 0.39844-0.15858 0-0.32031-0.16214-0.32031-0.39844 0-0.23629 0.16173-0.39844 0.32031-0.39844zm3.9688 0.08594c0.12792 0.0055 0.27471 0.09082 0.35938 0.25 0.11287 0.21227 0.04479 0.42227-0.09766 0.48633-0.14246 0.0641-0.40079-6.11e-4 -0.51367-0.21289-0.11288-0.21227-0.0098-0.43791 0.13281-0.50195 0.03562-0.01602 0.0765-0.02331 0.11914-0.02148zm-17.043 1.1367c0.43503 0.05202 0.57616 0.48026 0.51563 0.9082-0.06052 0.42794-0.31107 0.76499-0.74609 0.71289-0.43502-0.05201-0.69334-0.47243-0.63281-0.90039 0.06052-0.42796 0.42826-0.7728 0.86328-0.7207zm1.7852 0.05859c-0.43869 0-0.75391 0.38486-0.75391 0.81641 0 0.43156 0.31522 0.8164 0.75391 0.81641 0.43869 0 0.63867-0.36338 0.63867-0.79492 0-0.43155-0.19998-0.83789-0.63867-0.83789zm2.4043 0.04687c-0.43869 0-0.75391 0.38486-0.75391 0.81641 0 0.43156 0.31522 0.8164 0.75391 0.81641 0.43869 0 0.63867-0.36338 0.63867-0.79492 0-0.43155-0.19998-0.83789-0.63867-0.83789zm3.2188 0.11719c-0.43869 0-0.75391 0.3868-0.75391 0.81836s0.31522 0.8164 0.75391 0.81641c0.43869 0 0.63867-0.36338 0.63867-0.79492 0-0.43155-0.19998-0.83984-0.63867-0.83984zm14.662 0.0332c-0.43652 0.0401-0.59544 0.4202-0.54883 0.84961 0.0466 0.42942 0.28809 0.81741 0.72461 0.77734 0.43652-0.0401 0.71068-0.45339 0.66406-0.88281-0.0466-0.42944-0.40332-0.78419-0.83984-0.74414zm2.9648 0.0078c-0.10235-5e-3 -0.20646 0.0117-0.30664 0.05273-0.40071 0.16417-0.42148 0.57064-0.23047 0.96484 0.19101 0.39419 0.55436 0.69151 0.95508 0.52734 0.40071-0.16417 0.51718-0.6351 0.32617-1.0293-0.14326-0.29564-0.4371-0.50059-0.74414-0.51562zm-13.75 0.03125c-0.43869 0-0.75391 0.38485-0.75391 0.81641s0.31522 0.8164 0.75391 0.81641c0.43869 0 0.63867-0.36338 0.63867-0.79492 0-0.43155-0.19998-0.83789-0.63867-0.83789zm3.8262 0.02344c-0.43869 0-0.75391 0.38485-0.75391 0.81641s0.31522 0.8164 0.75391 0.81641c0.43869 0 0.63867-0.36338 0.63867-0.79492 0-0.43155-0.19998-0.83789-0.63867-0.83789zm3.7656 0.0098c-0.42729 0.0914-0.53205 0.48591-0.42578 0.90625 0.10625 0.42034 0.40083 0.77688 0.82812 0.68555 0.4273-0.0913 0.64142-0.53278 0.53516-0.95312-0.10628-0.42035-0.5102-0.72998-0.9375-0.63867zm-18.926 0.01367c-0.18685-0.02235-0.40398 0.1454-0.44336 0.42383-0.03937 0.27841 0.12369 0.49137 0.31055 0.51367 0.18685 0.02233 0.45085-0.13956 0.49023-0.41797 0.03937-0.27842-0.17057-0.49723-0.35742-0.51953zm26.812 0.04297c-0.04937-0.01067-0.09914-0.0096-0.14453 2e-3 -0.18156 0.04631-0.357 0.29-0.27539 0.56055 0.08162 0.27053 0.36921 0.39786 0.55078 0.35156 0.18156-0.04631 0.31016-0.28024 0.22852-0.55078-0.06121-0.2029-0.21125-0.33126-0.35938-0.36328zm-24.979 0.01758c0.18842 0 0.42773 0.1919 0.42773 0.47266s-0.23931 0.47266-0.42773 0.47266-0.37891-0.1919-0.37891-0.47266 0.19048-0.47266 0.37891-0.47266zm2.4043 0.04687c0.18843 0 0.42773 0.1919 0.42773 0.47266s-0.23931 0.47266-0.42773 0.47266-0.38086-0.1919-0.38086-0.47266 0.19244-0.47266 0.38086-0.47266zm3.2188 0.11719c0.18843 0 0.42773 0.19385 0.42773 0.47461s-0.23931 0.47266-0.42773 0.47266-0.38086-0.1919-0.38086-0.47266 0.19244-0.47461 0.38086-0.47461zm14.699 0.03125c0.1875-0.0173 0.39936 0.15813 0.42969 0.4375 0.03032 0.27936-0.14063 0.4867-0.32812 0.50391-0.18749 0.0172-0.44428-0.15226-0.47461-0.43164-0.03032-0.27936 0.18555-0.49256 0.37305-0.50976zm2.916 0.01172c0.15165 0.01151 0.32086 0.11828 0.41406 0.31055 0.12427 0.25646 0.03539 0.5037-0.13672 0.57422-0.17211 0.0706-0.47729-0.01507-0.60156-0.27148-0.12427-0.25644 0.0097-0.52324 0.18164-0.59375 0.04303-0.01765 0.09203-0.02337 0.14258-0.01953zm-13.738 0.0293c0.18842 0 0.42773 0.19188 0.42773 0.47266 0 0.28075-0.23931 0.47266-0.42773 0.47266-0.18843 0-0.38086-0.19191-0.38086-0.47266 0-0.28077 0.19243-0.47266 0.38086-0.47266zm3.8262 0.02344c0.18842 0 0.42773 0.19189 0.42773 0.47266 0 0.28076-0.23931 0.47266-0.42773 0.47266s-0.38086-0.1919-0.38086-0.47266c0-0.28077 0.19244-0.47266 0.38086-0.47266zm3.8516 0c0.18353-0.0392 0.4172 0.10935 0.48633 0.38281 0.06913 0.27347-0.07037 0.49983-0.25391 0.53906-0.18353 0.0392-0.46407-0.09766-0.5332-0.37109-0.06912-0.27347 0.11725-0.51155 0.30078-0.55078zm9.123 1.2383c0.47681-0.0112 0.83073 0.40009 0.84375 0.86914 0.01302 0.46906-0.31812 0.897-0.79492 0.9082-0.47681 0.01119-0.70574-0.42742-0.71875-0.89648-0.013023-0.46905 0.19312-0.86966 0.66992-0.88086zm-25.602 0.02148c-0.47696 0-0.82031 0.41947-0.82031 0.88867 0 0.46921 0.34335 0.88866 0.82031 0.88867 0.47696 0 0.69336-0.39602 0.69336-0.86523 0-0.4692-0.2164-0.91211-0.69336-0.91211zm2.8496 0.0957c-0.47696 0-0.82031 0.41947-0.82031 0.88867 0 0.46921 0.34335 0.88671 0.82031 0.88672 0.47696 0 0.69336-0.39407 0.69336-0.86328 0-0.4692-0.2164-0.91211-0.69336-0.91211zm7.9844 0.07031c-0.47696 0-0.82031 0.41947-0.82031 0.88867 0 0.46921 0.34335 0.88866 0.82031 0.88867 0.47696 0 0.69531-0.39602 0.69531-0.86524 0-0.4692-0.21835-0.91211-0.69531-0.91211zm10.371 0.18164c-0.47236 0.0609-0.62735 0.48063-0.55664 0.94531 0.07072 0.46467 0.35186 0.87522 0.82422 0.81445 0.47236-0.0609 0.74844-0.5197 0.67773-0.98438-0.07073-0.46468-0.47295-0.83615-0.94531-0.77539zm4.4062 0.0059c-0.2048 0.0048-0.45772 0.21829-0.44922 0.52344s0.27372 0.50891 0.47852 0.50391c0.2048-0.004852 0.40694-0.21831 0.39844-0.52347-0.008472-0.30514-0.22294-0.50891-0.42773-0.50391zm-25.611 0.02148c0.20486 0 0.46484 0.20841 0.46484 0.51367 0 0.30524-0.25998 0.51562-0.46484 0.51562-0.20487 0-0.41406-0.21038-0.41406-0.51562 0-0.30526 0.2092-0.51367 0.41406-0.51367zm14.66 0.0039c-0.47696 0-0.82031 0.41947-0.82031 0.88867s0.34335 0.88671 0.82031 0.88672c0.47696 0 0.69336-0.39408 0.69336-0.86328s-0.2164-0.91211-0.69336-0.91211zm-7.8301 0.02344c-0.47696 0-0.82031 0.41947-0.82031 0.88867s0.34335 0.8867 0.82031 0.88672c0.47696 0 0.69336-0.39408 0.69336-0.86328s-0.2164-0.91211-0.69336-0.91211zm11.514 0.01758c-0.10849-0.0234-0.22212-0.02436-0.33789 2e-3 -0.46307 0.10503-0.57149 0.53666-0.44922 0.99219 0.12226 0.45553 0.44904 0.83749 0.91211 0.73242 0.46306-0.10503 0.68672-0.58745 0.56445-1.043-0.0917-0.34166-0.36398-0.6134-0.68945-0.68359zm-15.494 0.04883c0.20487 0 0.46484 0.21036 0.46484 0.51562 0 0.30524-0.25998 0.51367-0.46484 0.51367s-0.41406-0.20843-0.41406-0.51367c0-0.30526 0.2092-0.51562 0.41406-0.51562zm20.719 0.03516c0.16198 0.03098 0.32961 0.16586 0.40234 0.38476 0.09698 0.29194-0.03649 0.54848-0.23242 0.60352-0.19593 0.055-0.51044-0.07528-0.60742-0.36719-0.09698-0.29193 0.08336-0.56216 0.2793-0.61719 0.04898-0.01375 0.10421-0.01424 0.1582-0.0039zm-12.734 0.03516c0.20487 0 0.46484 0.21036 0.46484 0.51562 0 0.30524-0.25998 0.51367-0.46484 0.51367s-0.41211-0.20843-0.41211-0.51367c0-0.30526 0.20724-0.51562 0.41211-0.51562zm10.428 0.17969c0.20289-0.0261 0.44033 0.15473 0.48633 0.45703 0.046 0.30231-0.12914 0.53445-0.33203 0.56055s-0.49111-0.14692-0.53711-0.44922c-0.04601-0.30231 0.17992-0.54227 0.38281-0.56836zm-6.6016 0.0332c0.20486 0 0.46484 0.21037 0.46484 0.51562s-0.25998 0.51367-0.46484 0.51367c-0.20487 0-0.41406-0.20842-0.41406-0.51367s0.2092-0.51562 0.41406-0.51562zm-7.8301 0.02344c0.20486 0 0.46289 0.21036 0.46289 0.51562 0 0.30524-0.25802 0.51367-0.46289 0.51367s-0.41406-0.20843-0.41406-0.51367c0-0.30526 0.2092-0.51562 0.41406-0.51562zm11.273 0.0098c0.1989-0.0452 0.45561 0.11186 0.53516 0.4082 0.07953 0.29635-0.06868 0.54471-0.26758 0.58984-0.1989 0.0452-0.50639-0.1002-0.58594-0.39648-0.07954-0.29637 0.11941-0.55643 0.31836-0.60156zm-16.744 1.2227c-0.47696 0-0.81836 0.41947-0.81836 0.88867s0.3414 0.88671 0.81836 0.88672c0.47696 0 0.69531-0.39408 0.69531-0.86328s-0.21835-0.91211-0.69531-0.91211zm-2.5156 0.09375c-0.47696 0-0.82031 0.41947-0.82031 0.88867s0.34335 0.88866 0.82031 0.88867c0.47696 0 0.69336-0.39604 0.69336-0.86524s-0.2164-0.91211-0.69336-0.91211zm13.762 0.02344c-0.47696 0-0.82031 0.41947-0.82031 0.88867s0.34335 0.88866 0.82031 0.88867c0.47696 0 0.69531-0.39603 0.69531-0.86523s-0.21835-0.91211-0.69531-0.91211zm-7.8555 0.18945c-0.47696 0-0.82031 0.41948-0.82031 0.88867 0 0.46921 0.34335 0.88866 0.82031 0.88867 0.47696 0 0.69336-0.39602 0.69336-0.86523 0-0.46919-0.2164-0.91211-0.69336-0.91211zm17.521 0.01367c-0.4639 0.10195-0.57565 0.53388-0.45703 0.99024 0.11862 0.45635 0.4404 0.84023 0.9043 0.73828 0.4639-0.10197 0.69283-0.58272 0.57422-1.0391-0.11862-0.45636-0.55758-0.79138-1.0215-0.68945zm-20.912 0.05273c0.20487 0 0.46484 0.21038 0.46484 0.51562s-0.25998 0.51367-0.46484 0.51367c-0.20487 0-0.41211-0.20842-0.41211-0.51367s0.20724-0.51562 0.41211-0.51562zm7.3184 0.0039c-0.47696 0-0.82031 0.41948-0.82031 0.88867 0 0.46921 0.34335 0.88866 0.82031 0.88867 0.47696 0 0.69336-0.39602 0.69336-0.86524 0-0.46919-0.21639-0.91211-0.69336-0.91211zm11.455 0.0625c-0.10931-0.01992-0.22318-0.01823-0.33789 0.01172-0.45882 0.1198-0.5515 0.55645-0.41211 1.0078s0.48063 0.82098 0.93945 0.70117c0.45882-0.1198 0.66478-0.60723 0.52539-1.0586-0.10455-0.33852-0.38692-0.60235-0.71484-0.66211zm-3.291 0.0078c-0.47696 0-0.81836 0.41948-0.81836 0.88867 0 0.46921 0.3414 0.88866 0.81836 0.88867 0.47696 0 0.69531-0.39602 0.69531-0.86523 0-0.46919-0.21835-0.91211-0.69531-0.91211zm-20.107 2e-3c-0.18842-0.0015-0.38206 0.188-0.38476 0.46875-0.0027 0.28073 0.18658 0.47556 0.375 0.47656 0.18842 0.0015 0.42894-0.18801 0.43164-0.46875 0.0027-0.28077-0.23346-0.47556-0.42188-0.47656zm2.1094 0.01953c0.20486 0 0.46484 0.20842 0.46484 0.51367s-0.25998 0.51367-0.46484 0.51367c-0.20487 0-0.41211-0.20842-0.41211-0.51367s0.20724-0.51367 0.41211-0.51367zm25.617 0.0059c-0.19836 0.04709-0.39353 0.3099-0.31055 0.60547 0.08297 0.29553 0.39148 0.43772 0.58984 0.39062 0.19837-0.04708 0.3447-0.29623 0.26172-0.5918-0.08297-0.29556-0.34266-0.4514-0.54102-0.4043zm-11.855 0.01758c0.20487 0 0.46484 0.20841 0.46484 0.51367 0 0.30524-0.25998 0.51367-0.46484 0.51367s-0.41211-0.20843-0.41211-0.51367c0-0.30526 0.20724-0.51367 0.41211-0.51367zm-7.8555 0.1875c0.20486 0 0.46484 0.21038 0.46484 0.51562s-0.25998 0.51367-0.46484 0.51367c-0.20487 0-0.41406-0.20842-0.41406-0.51367s0.20919-0.51562 0.41406-0.51562zm17.615 0.0039c0.19925-0.0438 0.45408 0.11523 0.53125 0.41211 0.07718 0.2969-0.07223 0.54606-0.27148 0.58984-0.19926 0.0438-0.50486-0.10546-0.58203-0.40234-0.07717-0.29689 0.12301-0.55583 0.32227-0.59961zm-13.688 0.06836c0.20487 0 0.46484 0.20842 0.46484 0.51367s-0.25998 0.51367-0.46484 0.51367-0.41406-0.20842-0.41406-0.51367 0.2092-0.51367 0.41406-0.51367zm11.385 0.05859c0.16128 0.03393 0.32456 0.17239 0.39258 0.39258 0.09069 0.29364-0.04703 0.54621-0.24414 0.59766-0.19707 0.0515-0.50892-0.08337-0.59961-0.37695-0.09069-0.29364 0.09784-0.55987 0.29492-0.61133 0.04927-0.01285 0.10249-0.01321 0.15625-2e-3zm-3.2207 0.01172c0.20487 0 0.46484 0.20842 0.46484 0.51367s-0.25998 0.51562-0.46484 0.51562-0.41211-0.21038-0.41211-0.51562 0.20724-0.51367 0.41211-0.51367zm1.5664 1.2793c-0.47696 0-0.82031 0.41753-0.82031 0.88672 0 0.46921 0.34335 0.88866 0.82031 0.88867 0.47696 0 0.69531-0.39602 0.69531-0.86523 0-0.46919-0.21835-0.91016-0.69531-0.91016zm-15.203 0.0059c-0.47696 0-0.82031 0.41752-0.82031 0.88672 0 0.46921 0.34335 0.88866 0.82031 0.88867 0.47696 0 0.69336-0.39407 0.69336-0.86328 0-0.4692-0.2164-0.91211-0.69336-0.91211zm-3.084 0.06445c-0.47226 0.0615-0.74922 0.52176-0.67773 0.98633 0.07148 0.46458 0.475 0.83487 0.94726 0.77344 0.47226-0.0615 0.62617-0.48073 0.55469-0.94531-0.07149-0.46458-0.35196-0.87589-0.82422-0.81445zm10.508 0.07031c-0.47696 0-0.82031 0.41948-0.82031 0.88867 0 0.46921 0.34335 0.88866 0.82031 0.88867 0.47696 0 0.69336-0.39602 0.69336-0.86523 0-0.46919-0.2164-0.91211-0.69336-0.91211zm4.0312 0c-0.47696 0-0.82031 0.41948-0.82031 0.88867 0 0.46921 0.34335 0.88866 0.82031 0.88867 0.47696 0 0.69336-0.39602 0.69336-0.86523 0-0.46919-0.2164-0.91211-0.69336-0.91211zm-7.8301 0.04687c-0.47696 0-0.82031 0.41947-0.82031 0.88867 0 0.46921 0.34335 0.88866 0.82031 0.88867 0.47696 0 0.69336-0.39602 0.69336-0.86523 0-0.4692-0.2164-0.91211-0.69336-0.91211zm14.594 0.06445c-0.10847-0.02357-0.22212-0.02431-0.33789 2e-3 -0.46308 0.10503-0.57143 0.53859-0.44922 0.99414s0.44903 0.83746 0.91211 0.73242c0.46308-0.10503 0.68667-0.58743 0.56445-1.043-0.09166-0.34166-0.36404-0.61482-0.68945-0.68555zm-3.0156 0.12109c0.20487 0 0.46484 0.20842 0.46484 0.51367s-0.25998 0.51562-0.46484 0.51562-0.41211-0.21038-0.41211-0.51562 0.20725-0.51367 0.41211-0.51367zm-15.203 0.0059c0.20486 0 0.46484 0.20842 0.46484 0.51367 0 0.30526-0.25998 0.51562-0.46484 0.51562-0.20487 0-0.41406-0.21036-0.41406-0.51562 0-0.30525 0.2092-0.51367 0.41406-0.51367zm-3.0273 0.0625c0.20285-0.0264 0.4906 0.14698 0.53711 0.44922 0.0465 0.30224-0.17801 0.54196-0.38086 0.56836-0.20284 0.0263-0.44178-0.15283-0.48828-0.45508-0.04651-0.30223 0.12918-0.53612 0.33203-0.5625zm10.451 0.07422c0.20486 0 0.46484 0.20843 0.46484 0.51367 0 0.30525-0.25998 0.51367-0.46484 0.51367-0.20487 0-0.41406-0.20842-0.41406-0.51367 0-0.30524 0.2092-0.51367 0.41406-0.51367zm4.0312 0c0.20486 0 0.46484 0.20843 0.46484 0.51367 0 0.30525-0.25998 0.51367-0.46484 0.51367-0.20487 0-0.41406-0.20842-0.41406-0.51367 0-0.30524 0.2092-0.51367 0.41406-0.51367zm-7.8301 0.04687c0.20486 0 0.46289 0.20843 0.46289 0.51367 0 0.30526-0.25802 0.51367-0.46289 0.51367s-0.41406-0.20841-0.41406-0.51367c0-0.30524 0.2092-0.51367 0.41406-0.51367zm14.354 0.05469c0.1989-0.0451 0.45566 0.1118 0.53516 0.4082 0.07952 0.29637-0.06868 0.54669-0.26758 0.5918-0.1989 0.0451-0.50448-0.10207-0.58398-0.39844-0.07951-0.29635 0.11751-0.55643 0.31641-0.60156zm2.9844 1.2793c0.36297-0.06214 0.68941 0.21129 0.76172 0.56836 0.07232 0.35707-0.12336 0.721-0.48633 0.7832-0.36297 0.06215-0.59761-0.24646-0.66992-0.60352-0.07232-0.35706 0.03157-0.68585 0.39453-0.74805zm-4.5918 0.097464c-0.36921 0-0.63476 0.3243-0.63476 0.6875 0 0.36321 0.26556 0.68749 0.63476 0.6875 0.36921 0 0.53711-0.30673 0.53711-0.66992 0-0.3632-0.1679-0.70508-0.53711-0.70508zm2.707 0.0293c-0.08464-0.0153-0.17296-0.01358-0.26172 0.0098-0.35502 0.0932-0.42487 0.43006-0.31641 0.7793 0.10846 0.34923 0.37154 0.6362 0.72656 0.54297 0.35502-0.0932 0.51471-0.47304 0.40625-0.82227-0.08136-0.26194-0.30077-0.46385-0.55469-0.50976zm1.9434 0.15625c-0.1559 0.02669-0.32244 0.22084-0.27539 0.45312 0.04704 0.23229 0.27769 0.35678 0.43359 0.33008 0.15591-0.0267 0.28337-0.213 0.23633-0.44531-0.04705-0.23232-0.23863-0.36459-0.39453-0.33789zm-24.797 0.03906c-0.33944 0-0.58398 0.29888-0.58398 0.63281 0 0.33392 0.24454 0.63086 0.58398 0.63086 0.33945 0 0.49414-0.28129 0.49414-0.61523 0-0.33391-0.1547-0.64844-0.49414-0.64844zm2.4648 0.02344c-0.36921 0-0.63477 0.32429-0.63477 0.6875 0 0.3632 0.26556 0.68749 0.63477 0.6875 0.36921 0 0.53711-0.30672 0.53711-0.66992s-0.1679-0.70508-0.53711-0.70508zm3.0723 0.01172c-0.36921 0-0.63476 0.3243-0.63476 0.6875 0 0.36321 0.26556 0.68749 0.63476 0.6875 0.36921 0 0.53711-0.30673 0.53711-0.66992 0-0.36321-0.1679-0.70508-0.53711-0.70508zm3.7227 0.02344c-0.36921 0-0.63477 0.32431-0.63477 0.6875 0 0.36322 0.26556 0.68749 0.63477 0.6875 0.36921 0 0.53711-0.30672 0.53711-0.66992s-0.1679-0.70508-0.53711-0.70508zm10.887 0.0059c0.15858 0 0.35938 0.16216 0.35938 0.39844 0 0.23629-0.20079 0.39844-0.35938 0.39844-0.15858 0-0.32031-0.16215-0.32031-0.39844 0-0.23628 0.16173-0.39844 0.32031-0.39844zm-6.8809 0.01758c-0.36921 0-0.63477 0.32431-0.63477 0.6875 0 0.36321 0.26555 0.68749 0.63477 0.6875 0.36921 0 0.53711-0.30477 0.53711-0.66797 0-0.36321-0.1679-0.70703-0.53711-0.70703zm3.7988 0c-0.36921 0-0.63477 0.32431-0.63477 0.6875 0 0.36321 0.26556 0.68749 0.63477 0.6875 0.36921 0 0.53711-0.30477 0.53711-0.66797 0-0.36321-0.1679-0.70703-0.53711-0.70703zm5.7344 0.0078c0.12521 0.02627 0.25372 0.13431 0.30664 0.30469 0.07058 0.22721-0.03697 0.42286-0.18945 0.46289-0.15249 0.0399-0.39428-0.06377-0.46484-0.29102-0.07057-0.2272 0.07406-0.43457 0.22656-0.47461 0.03812-0.01 0.07936-0.01071 0.12109-2e-3zm-22.799 0.17578c0.1458 0 0.33008 0.14994 0.33008 0.36719 0 0.21724-0.18428 0.36523-0.33008 0.36523s-0.29492-0.14799-0.29492-0.36523c0-0.21725 0.14912-0.36719 0.29492-0.36719zm2.4648 0.04687c0.15858 0 0.35938 0.16215 0.35938 0.39844 0 0.23628-0.20079 0.39844-0.35938 0.39844-0.15858 0-0.32031-0.16216-0.32031-0.39844 0-0.23629 0.16173-0.39844 0.32031-0.39844zm3.0723 0.01172c0.15858 0 0.35938 0.16214 0.35938 0.39844 0 0.23629-0.20079 0.39844-0.35938 0.39844-0.15858 0-0.32031-0.16215-0.32031-0.39844 0-0.2363 0.16173-0.39844 0.32031-0.39844zm3.7227 0.02344c0.15858 0 0.35938 0.16215 0.35938 0.39844 0 0.2363-0.20079 0.39844-0.35938 0.39844s-0.32031-0.16214-0.32031-0.39844c0-0.23629 0.16173-0.39844 0.32031-0.39844zm4.0059 0.02344c0.15858 0 0.35938 0.16215 0.35938 0.39844s-0.20079 0.39844-0.35938 0.39844c-0.15858 0-0.32031-0.16215-0.32031-0.39844s0.16173-0.39844 0.32031-0.39844zm3.7988 0c0.15859 0 0.35938 0.16215 0.35938 0.39844s-0.20079 0.39844-0.35938 0.39844c-0.15858 0-0.32031-0.16215-0.32031-0.39844s0.16173-0.39844 0.32031-0.39844zm-5.7324 45.516c3.7232-0.06051 8.6928 0.28342 13.078 1.5156-2.6843 1.8727-7.8315 2.9801-11.004 3.2422-3.4136 0.28197-8.5829-0.31714-11.812-1.2695-0.66409-0.19584-3.5109-1.2736-3.5898-1.6152 3.2876-1.1674 9.888-1.8171 13.328-1.873zm13.844 2.3398c-0.0819 0.60387-0.56254 2.3075-0.75976 2.5547-0.844 1.0579-1.6904 1.7266-2.918 2.166-3.0223 1.0817-7.1887 1.9766-10.434 1.9121-3.0727-0.061-6.5235-0.68453-9.1641-1.8438-0.779-0.34198-2.0823-0.78627-2.7207-1.3476-0.23532-0.20695-1.6077-1.5538-1.6016-2.8418 1.2522 0.99621 4.1907 1.9863 5.7227 2.2559 2.3901 0.42063 5.857 0.99481 8.7949 0.91797 3.3575-0.0878 6.4739-0.50578 9.7012-1.7871 0.8105-0.32179 2.5721-1.539 3.3789-1.9863z" color="#000000" color-rendering="auto" fill="#749dcf" fill-rule="evenodd" image-rendering="auto" shape-rendering="auto" solid-color="#000000" style="block-progression:tb;isolation:auto;mix-blend-mode:normal;text-decoration-color:#000000;text-decoration-line:none;text-decoration-style:solid;text-indent:0;text-transform:none;white-space:normal"/>
  <path d="m44.75 955.8c1.4533-0.69254 2.7729-1.5187 5.1875-1.25 1.7619 0.0276 3.7849 0.15954 5.25 1.375 0.49998-0.25895 1.0691-0.45863 0.4375-1.6875 1.2591-1.284-0.0928-1.7847-0.3125-2.625 0.90709-0.45192 0.56172-1.1543-0.1875-1.9375-2.1434-2.2773-3.7784-1.5037-5.625-2-3.9951 0.51072-3.8752 1.2786-5.5 1.9375-0.27394 0.63147-0.3657 1.3722 0.1875 2.5-1.1277 0.80887-0.48141 1.263 0 1.75-0.74721 1.0197-0.35142 1.5822 0.5625 1.9375z" fill="url(#v)" fill-rule="evenodd" stroke="#b5d1f3" stroke-width=".35433"/>
  <path transform="translate(0 946.06)" d="m49.105 3.1934c-0.09915 8e-3 -0.16799 0.074063-0.17774 0.1582l-0.0957 0.69336c-0.03383 0.23535 0.32001 0.2845 0.35156 0.048828l0.0957-0.69531c0.0171-0.11295-0.07467-0.21302-0.17383-0.20508zm1.2168 0.03125c-0.09928 7e-3 -0.16893 0.07217-0.17969 0.15625l-0.09375 0.63086c-0.05444 0.24682 0.32887 0.30463 0.34961 0.052734l0.0957-0.63281c0.01829-0.11284-0.07259-0.21391-0.17188-0.20703zm1.2422 0.064453c-0.09916-4e-3 -0.17771 0.063767-0.18945 0.1543l-0.0957 0.63086c-0.05445 0.24682 0.32888 0.30464 0.34961 0.052734l0.0957-0.63086c0.01812-0.1056-0.06099-0.2035-0.16016-0.20703zm-3.8008 0.046875c-0.09883 8e-3 -0.16713 0.0729-0.17773 0.15625l-0.095704 0.69531c-0.03127 0.23438 0.3203 0.28126 0.35156 0.046875l0.0957-0.69336c0.0171-0.11295-0.07499-0.21291-0.17383-0.20508zm4.8457 0.125c-0.09915 8e-3 -0.16799 0.074083-0.17773 0.1582l-0.0957 0.69531c-0.03127 0.23437 0.3203 0.28124 0.35156 0.046875l0.0957-0.69531c0.0171-0.11295-0.07468-0.21299-0.17383-0.20508zm-6.1094 0.097656c-0.08379 6e-3 -0.1515 0.070897-0.16211 0.1543l-0.09375 0.69531c-0.03125 0.2334 0.31806 0.28192 0.35156 0.048828l0.09375-0.69531c0.01708-0.11294-0.0756-0.21232-0.18945-0.20312zm-0.88281 0.28125c-0.09915 8e-3 -0.16799 0.074063-0.17774 0.1582l-0.0957 0.69336c-0.03359 0.23517 0.31983 0.28426 0.35156 0.048828l0.0957-0.69531c0.01709-0.11295-0.07468-0.21301-0.17383-0.20508zm8.2734 0.082031a0.17718 0.17718 0 0 0 -0.16406 0.15234l-0.0957 0.61523a0.1779 0.1779 0 0 0 0.35156 0.054687l0.09375-0.61719a0.17718 0.17718 0 0 0 -0.18555 -0.20508z" color="#000000" color-rendering="auto" fill="#540000" fill-rule="evenodd" image-rendering="auto" shape-rendering="auto" solid-color="#000000" style="block-progression:tb;isolation:auto;mix-blend-mode:normal;text-decoration-color:#000000;text-decoration-line:none;text-decoration-style:solid;text-indent:0;text-transform:none;white-space:normal"/>
  <path d="m44.75 955.8c1.4533-0.6925 2.7729-1.5187 5.1875-1.25 1.7619 0.028 3.785 0.1595 5.25 1.375 0.49998-0.2589 1.0691-0.4586 0.4375-1.6875 1.2591-1.284-0.0928-1.7847-0.3125-2.625 0.90709-0.45192 0.56172-1.1543-0.1875-1.9375-2.1434-2.2773-3.7784-1.5037-5.625-2-3.9951 0.51072-3.8752 1.2786-5.5 1.9375-0.27394 0.63147-0.3657 1.3722 0.1875 2.5-1.1277 0.80887-0.48141 1.263 0 1.75-0.74721 1.0197-0.35142 1.5822 0.5625 1.9375z" fill="url(#z)" fill-rule="evenodd" opacity=".308" stroke="#f60" stroke-width=".35433"/>
  <path d="m49.174 948.69c1.0681-0.013 1.8208 0.0349 2.5078 0.12891 0.59463 0.0814 1.8368 0.40978 2.1699 0.52343 0.59763 0.20598 0.64015 0.60651 0.6914 0.9043 0.55761 0.38146 0.3662 0.93336 0.1822 1.196-0.18399 0.26261-0.83677-0.31895-1.9947-0.53777-0.97185-0.18365-2.1896-0.42495-3.4205-0.42823-1.1371-3e-3 -1.6198-0.0156-3.2474 0.39894-0.29059 0.074-0.35812 0.34378-0.07227 0.52734 0.16622 0.10674 0.52125-0.0599 0.79297-0.0996 1.1239-0.16414 2.2538-0.31965 3.3906-0.23828 1.0668 0.0764 2.1431 0.1791 3.1699 0.47656 0.37978 0.11003 0.90627 0.33908 1.2598 0.53516 0.2439 0.19361 0.25808 0.35912 0.18165 0.60352-0.77216-0.37102-1.643-0.67667-2.4922-0.82618-1.1396-0.20063-2.7361-0.33614-3.6934-0.28125-1.0087 0.0579-2.2104 0.14245-2.8909 0.2889-0.36306 0.0781-0.79022 0.0803-1.1992 0.1087-0.02001-0.25594-0.25879-1.2593-0.14775-1.6658 0.14118-0.51688 1.1002-0.94834 1.5687-1.1515 1.1767-0.51027 2.1753-0.45014 3.2434-0.46313zm3.9674 3.9335c0.55591 0.13394 1.1287 0.27196 1.588 0.62622 0.39489 0.30462 0.46453 0.35331 0.39771 0.66882-0.69703-0.3504-2.2344-0.78164-3.2129-0.90821-1.0608-0.1372-2.0571-0.12398-3.1953-0.14648-0.91473-0.0181-2.9826 0.25623-4.1492 0.54871-0.08781 0.022-0.34067 0.0912-0.50566-0.18857-0.16499-0.27973 0.05328-0.3556 0.26733-0.5751 0.18813-0.0724 1.144-0.26185 1.3959-0.29799 1.0366-0.14856 1.9388-0.18644 2.6364-0.21375 0.69754-0.0273 1.1395-0.016 1.8903 0.0338s1.7534 0.17931 2.8874 0.45254zm-4.2643 0.6798c1.5377 0.0181 2.9753-0.0272 4.4609 0.40235 0.50482 0.14594 1.4597 0.42793 1.6119 0.53899s0.15116 0.37408 0.13807 0.41999c-0.0486 0.17053-0.0962 0.4624-0.36707 0.42174-0.27084-0.0407-0.78151-0.294-1.2608-0.43285-1.5312-0.44361-2.9476-0.43966-4.5362-0.45373-1.0749-0.01-2.9666 0.39698-3.7715 1.0254-0.23401-0.077-0.43526-0.059-0.63637-0.21703-0.50342-0.39568 0.1378-0.91345 0.39809-1.0662 0.16009-0.0996 0.86493-0.29092 1.0723-0.32422 1.1021-0.177 1.7687-0.32765 2.8906-0.31445zm-3.4586 2.9788c0.22443-0.0905 0.99237-0.66121 1.2814-0.80094 0.94902-0.45879 1.9226-0.48369 2.7669-0.48963 0.82207-6e-3 1.6399 0.0436 2.2998 0.17193 0.65992 0.12834 1.1109 0.27424 1.6545 0.38326 0.4573 0.0917 0.78842 0.78472 0.88416 0.86548l1.2047 0.18998c0.53463 0.0661 1.0865-0.87635 1.1035-1.2109 0.0319-0.62521-0.21255-0.69869-0.37695-1.0762 0.20705-0.23051 0.66539-0.55634 0.59179-1.1309-0.0496-0.38707-0.42269-0.91524-0.6582-1.1797 0.17554-0.25536 0.40182-0.827 0.375-1.1191-0.0502-0.5474-0.29536-0.76915-0.5332-1.1621-0.25602-1.0232-1.027-1.6425-1.793-2.0293-0.81122-0.40965-1.8633-0.61324-2.3945-0.67579-0.52363-0.0617-0.98032-0.10827-1.4668-0.12893-0.4865-0.0206-1.0033-0.0146-1.6446 0.0254-1.2824 0.0799-2.0925 0.25979-2.9824 0.65625-0.63927 0.2848-1.0938 0.57792-1.498 0.99414-0.40328 0.41526-0.96797 1.1422-0.92383 1.8301 0.0376 0.58596 0.16316 1.1425 0.41211 1.5664-0.38884 0.20776-0.71328 0.5876-0.71484 1.0215-0.0023 0.64694 0.25386 0.85824 0.66016 0.99805-0.41844 0.33187-0.4625 0.70632-0.48047 0.98828-0.01916 0.30069 0.18233 0.7704 0.33984 0.9082 0.18175 0.15901 0.51719 0.35311 1.0664 0.55859z" color="#000000" color-rendering="auto" fill="#5a201f" fill-rule="evenodd" image-rendering="auto" shape-rendering="auto" solid-color="#000000" style="block-progression:tb;isolation:auto;mix-blend-mode:normal;text-decoration-color:#000000;text-decoration-line:none;text-decoration-style:solid;text-indent:0;text-transform:none;white-space:normal"/>
  <g fill-rule="evenodd" stroke-width=".35433">
   <path d="m51.77 955.35 0.14017 2.3811c0.02083 1.4922-0.14278 2.009 0.0625 4.4766 0.20362 2.4476 0.5905 3.6947 1.149 4.8399-0.03478-1.679-0.03657-3.2768 0-5.1935 0.04055-2.1258-0.23533-3.9212 0.20266-6.2077-0.64002-0.21293-1.0702-0.25375-1.5544-0.29641z" fill="url(#ac)" stroke="#d4d4d4"/>
   <path d="m57.984 994.93c-1.574 0.0991-1.3975 0.70675-1.8772 1.1238-0.3025 0.74052 0.44013 1.8354 0.73952 2.3136 0.47702-0.40592 0.46542-1.0957 0.34131-1.8509 0.13876-0.37433 1.0042-1.2332 0.7964-1.5865z" fill="url(#ae)" opacity=".651" stroke="#b9b9b9" stroke-linejoin="bevel"/>
   <path d="m58.061 1010.8c0.24767-0.6297-1.5656-0.4279-1.6196 0.062 0 0-0.08023 2.2708-0.06478 3.4063 0.03814 2.8027 0.36902 5.6035 0.38871 8.4063 0.017 2.4095 0.06478 6.375 0.97177 6.375 1.2556 0.1346 0.43126-2.8396 0.32392-4.2813-0.17132-2.3012-0.20501-4.6043-0.32392-6.9062-0.07911-1.5314-0.39605-3.0634-0.25914-4.5938 0.07401-0.8273 0.58306-2.4683 0.58306-2.4683z" fill="url(#af)" stroke="#bcbcbc"/>
   <path d="m41.277 1002.6c-0.2954-0.087-2.1087 0.9175-2.2981 3.2703-0.23567 1.7442 0.07144 3.6269 0.53033 3.624 0.51369-0.062 1.1785-2.2392 1.7678-3.3588 0.69566-1.6423 0.4521-3.5497 0-3.5355z" fill="url(#ag)" stroke="#c7c7c7"/>
   <path d="m46.153 955.28s-0.19152 3.7314-0.83636 7.543c-0.37076 2.1916-1.1527 4.3256-1.515 6.2016-0.44917 2.3261-1.4184 6.0504-2.1456 9.4578-0.8994 4.2144-1.2218 5.3341-1.8091 8.0065-0.267 1.215-0.49439 2.4161-0.65441 3.6498-0.15935 1.2286 0.07322 3.9936 0.07322 3.9936 0.53172 0.3233 0.97244 1.0106 1.424 1.6544 0 0-0.35982-3.5292-0.17678-5.4068 0.35783-3.6705 1.6671-8.3031 2.4436-11.908 0.68855-3.1969 1.4443-7.134 1.9364-9.6176 0.36302-1.8324 1.1072-4.014 1.475-6.1199 0.68808-3.94 0.76174-7.7557 0.76174-7.7557-0.41918 0.13155-0.6398 0.241-0.97671 0.30177z" fill="url(#ab)" stroke="#d7d7d7"/>
   <path d="m55.306 1000.1c0.01803 1.1071-0.19989 2.1597 0.19801 3.3541 0 0 1.368-0.9916 1.386-1.5677 0.02075-0.6615-1.584-1.7864-1.584-1.7864z" fill="url(#ad)" stroke="#b7b7b7"/>
  </g>
 </g>
</svg>
