<?xml version="1.0" encoding="UTF-8"?>
<svg version="1.1" viewBox="0 0 287.76 299.6" xmlns="http://www.w3.org/2000/svg">
 <defs>
  <radialGradient id="b" cx="-973.59" cy="224.43" r="98.376" gradientTransform="matrix(1 0 0 1.0456 728.65 -55.868)" gradientUnits="userSpaceOnUse">
   <stop stop-color="#eee" offset="0"/>
   <stop stop-color="#eee" stop-opacity="0" offset="1"/>
  </radialGradient>
  <filter id="a" color-interpolation-filters="sRGB">
   <feGaussianBlur in="SourceGraphic" result="result0" stdDeviation="6"/>
   <feDiffuseLighting lighting-color="#ffffff" result="result5" surfaceScale="4">
    <feDistantLight azimuth="235" elevation="45"/>
   </feDiffuseLighting>
   <feComposite in="result5" in2="SourceGraphic" k1="1.4" operator="arithmetic" result="fbSourceGraphic"/>
   <feGaussianBlur in="fbSourceGraphic" result="result0" stdDeviation="6"/>
   <feSpecularLighting lighting-color="#ffffff" in="result0" result="result1" specularExponent="25" surfaceScale="4">
    <feDistantLight azimuth="235" elevation="45"/>
   </feSpecularLighting>
   <feComposite in="fbSourceGraphic" in2="result1" k2="1" k3="1" operator="arithmetic" result="result4"/>
   <feComposite in="result4" in2="SourceGraphic" operator="in" result="result2"/>
  </filter>
 </defs>
 <g transform="translate(-270.17 -381.78)">
  <g transform="matrix(2.8766 .041707 -.041707 2.8766 -1343.1 -758.09)">
   <g transform="matrix(.95407 0 0 .95407 -340.15 512.48)">
    <g transform="matrix(.47511 -.0076682 .0076682 .47511 1118.5 -163.44)">
     <path d="m-274.98 293.51c15.759-15.296 23.939-44.848 22.235-71.434-41.117 72.748-102.31 31.074-102.51-12.585-0.2004-43.647 46.398-64.228 81.274-44.192-38.971-36.327-26.868-101.5 28.741-101.36 57.54 0.14978 68.295 65.515 29.176 100.94 36.516-19.921 85.159 1.7154 81.23 46.353-5.6829 64.57-79.329 65.984-102.98 10.079-1.5712 27.216 7.1681 54.835 22.323 72.104-21.079 0.0565-41.966 0.41442-59.493 0.0928z"/>
     <path d="m-142.54 187.72c-15.334-30.494-48.552-30.181-71.347-19.564-8.6051 3.9097-8.9157-0.73636-2.5666-8.2029 7.0724-8.3215 13.957-16.785 16.848-27.485 6.988-21.07 0.78894-47.952-19.938-58.563-9.3344-5.0522-19.959-6.3926-30.469-5.875-20.288 0.68479-39.126 16.436-41.785 36.825-4.0924 21.821 5.6666 44.315 21.753 58.893 4.1234 3.909 1.4869 7.664-2.6562 6.0938-8.3163-3.3411-16.46-8.0198-25.719-8.0938-20.384-1.872-41.874 9.5896-49.531 28.866 29.889 24.574 67.234 25.82 99.334 11.839 53.447-23.278 75.095-30.257 106.08-14.735zm-206.72 6.748c-8.2094 26.049 9.1394 57.465 36.156 62.438 18.299 3.8042 35.558-7.1761 46.375-21.25 4.3346-5.2767 7.9408-10.997 11.318-16.88 5.6373-11.938 6.1611-8.6262 6.6775 1.8639 1.1557 24.205-3.2623 49.183-17.589 68.954 14.158 0.014 28.618 0.21564 42.594-0.3125-13.71-19.726-19.214-44.139-18.072-68.109 0.80055-18.135 2.0079-11.919 7.9663-0.13102 7.1982 14.146 17.416 26.868 32.45 32.865 43.485 15.549 73.757-26.144 61.007-60.141-25.019-18.362-54.109-11.681-101.22 10.359-45.723 21.392-82.928 8.2363-107.66-9.6548z" fill="#202020"/>
     <path d="m-150.42 182.41c-11.25-15.136-29.797-23.324-58.466-11.943-14.909 4.4037-18.143 0.2365-12.968-8.2917 9.8565-12.262 19.373-24.271 20.714-41.183 2.7751-19.62-8.1804-42.067-28.406-46.906-5.9344-1.7579-12.17-2.2956-18.406-2.125-21.828-0.73478-41.772 19.28-40.75 41.219-0.9107 19.456 9.9782 37.473 23.594 50.375 4.7576 6.2639-3.177 12.509-10.312 8.0814-15.263-8.4676-34.645-9.3494-50.125-0.23761-7.1001 3.8204-13.825 11.414-17.663 18.405 24.878 19.932 55.565 25.202 95.427 8.4209 53.937-22.707 71.794-26.505 97.363-15.814zm-96.204 28.451c1.3418 26.709-0.25437 53.477-12.298 74.725 9.3331 0.0463 18.669 0.14386 28-0.125-12.299-23.77-15.354-48.912-12.677-75.818zm102.16-16.723c15.386 36.584-18.391 72.688-59.016 55.75-17.897-8.9192-27.112-28.863-34.26-45.075 39.748-17.421 68.364-26.291 93.276-10.675zm-202.08 5.4231c-1.1267 5.1913-1.2498 10.607-0.18577 15.931 3.2481 21.437 23.561 41.455 46.344 37.688 21.286-3.7782 34.588-23.073 44.111-40.963-51.259 17.799-90.269-12.656-90.269-12.656z"/>
     <path d="m-343 203.03c-2.0407 16.069 5.8161 33.491 20.145 41.616 11.416 7.3887 26.648 6.1911 37.281-1.9688 9.3614-6.6346 16.136-15.7 21.917-25.287-20.886 7.3298-62.486 3.0158-79.342-14.361zm138.86 43.034c37.738 16.947 65.649-16.815 55.639-50.974-26.603-14.194-65.213 4.5461-85.523 10.832 5.5247 13.305 15.531 30.559 29.883 40.143zm44.664-68.844c-16.572-11.01-32.004-7.8189-44.651-4.4021-18.133 4.899-30.305 1.9412-21.612-11.14 9.2105-11.98 18.087-22.372 20.536-39.782 3.6678-19.469-8.8104-42.585-29.656-45-4.84-0.98586-9.9883-1.0346-15-0.9375-20.976 0.40309-38.172 21.741-34.812 42.375 0.8852 17.416 12.267 32.271 23.687 44.531 5.5629 9.3563-6.2076 19.052-16.902 12.148-18.453-10.643-47.853-4.8791-60.535 13.419 22.237 19.421 51.851 22.325 87.998 8.3653 27.964-10.799 64.545-31.202 90.948-19.578zm-85.977 63.739c-1.3328 18.757-3.6919 34.794-6.7495 40.657 4.0015-0.0275 10.689-0.0213 14.657 0.0321-2.9742-5.5092-7.3778-25.599-7.9073-40.689z" fill="url(#b)" opacity=".243"/>
    </g>
    <g transform="matrix(-.29135 .006888 .006888 .29135 -222.18 125.48)" fill="#704b00">
     <g transform="matrix(-.25892 0 0 -.25892 -4407.7 -630.86)" filter="url(#a)">
      <path d="m-192.27-505.11c-18.733-5.56-33.519-13.306-45.506-29-13.801-18.569-12.589-42.595 3.1847-58.092 9.161-9.0003 25.309-12.11 35.918-8.0576 24.184 9.2383 28.924 36.836 13.774 51.786-10.736 10.594-24.721 8.1006-32.981 2.1269-6.4836-4.6887-12.118-12.815-10.056-21.966 2.1486-9.536 10.446-18.514 20.938-14.581 3.296 1.3772 5.877 5.6926 5.152 9.1491-1.1388 5.4288-8.826 8.3522-10.902 4.0204-1.3401-2.7966-3.8367-2.967-4.6694-2.6474-8.1564 13.387 6.7464 23.207 13.942 9.3784 4.2287-7.1841 9.1214-8.2682 15.363-6.3528 2.812 0.78423 3.3912 0.53414 3.3876-0.78609-0.0169-6.1454-2.6713-12.385-6.9827-16.413-13.801-12.246-36.169-5.8868-43.057 7.7092-4.3853 9.82-4.5264 19.793-1.5587 29.173 4.9376 15.327 18.26 27.104 39.773 35.161 8.7321 3.2702 10.283 3.9796 10.62 4.8561 0.40873 1.0651 0.35651 3.0896-0.0982 3.8065-0.39305 0.61972-4.6367 1.1156-6.2397 0.72911z"/>
      <path d="m-171.28-342.46c-15.925-1.5379-33.077-7.8605-47.688-17.579-3.611-2.4018-6.8249-4.367-7.142-4.367-0.40623 0-0.64221 1.25-0.7988 4.2311-0.23307 4.4373-0.99098 6.6109-3.4466 9.8843-2.5038 3.3376-8.006 4.2596-12.388 2.0757-2.6229-1.307-3.7407-2.8969-3.7295-5.3047 0.01-2.158 0.31988-2.4543 3.9882-3.8141 1.8103-0.67102 3.8133-1.7036 4.451-2.2947 1.0286-0.9533 1.1596-1.4367 1.1596-4.2807 0-4.4621-1.2867-9.5325-5.0862-20.044-6.4243-17.772-7.8351-24.714-7.8804-38.774-0.0275-8.545 0.0538-9.4728 1.2319-14.067 1.8914-7.3754 6.5382-20.763 8.3602-24.086 1.9254-3.5114 1.8775-3.8404-1.2553-8.6169-4.2908-6.542-5.9464-11.407-5.93-17.425 0.0206-7.581 2.7551-13.351 8.3031-17.519 3.1389-2.3585 6.2931-3.0337 9.6344-2.0624 3.2067 0.93221 5.5293 2.72 7.004 5.3912 1.8836 3.4118 1.3164 6.6449-1.7317 9.8709-2.5686 2.7186-4.3714 2.9646-9.4154 1.2848-4.6424-1.5461-5.0643-1.3217-5.0643 2.6936 0 6.1226 3.748 14.896 6.3693 14.91 0.39641 2e-3 3.6025-1.4453 7.1246-3.2164 10.505-5.2824 17.442-6.3198 23.252-3.4774 4.9551 2.4243 8.525 7.3412 8.5345 11.755 0.0189 8.8477-9.172 15.3-20.548 14.425-2.8954-0.22256-5.6145-0.88318-10.69-2.5971-7.6087-2.5695-7.6012-2.5701-9.0133 0.72421-2.8467 6.6411-2.9849 15.932-0.31363 21.095 1.7378 3.3588 6.0075 5.7272 10.837 6.0112 2.9726 0.1748 3.7912 0.0417 6.1314-0.99667 3.5122-1.5584 5.9391-1.6698 7.2738-0.33361 0.82536 0.82629 0.9989 1.5098 0.97743 3.8497-0.0642 6.9977-7.0617 14.367-14.469 15.238-3.3495 0.39366-7.0143-0.43842-12.447-2.826l-4.5283-1.9901c0.0523 11.474 3.1536 23.544 8.6144 30.499 8.3555 10.642 24.739 19.94 36.602 14.578 2.9159-1.3325 5.371-3.4005 6.4244-5.4115 0.35848-0.68433 0.77822-2.8456 0.93276-4.8029 0.49479-6.2668 2.1404-8.0522 6.4653-7.0147 6.1559 1.4768 11.673 9.394 10.928 15.683-0.46507 3.9268-3.1264 8.6336-7.4781 13.225-4.9022 5.1728-4.8571 5.2596 3.091 5.9415 15.757 0.86256 31.469 1.2166 45.732-5.7992 6.3543-3.1775 10.758-8.0875 11.923-13.295 1.1237-5.0212-1.5878-9.6094-7.4182-12.553-3.3146-1.6732-4.0686-2.4534-4.0686-4.2094 0-3.558 4.9715-9.3856 9.9348-11.646 3.4352-1.5642 8.4272-1.6762 11.586-0.25994 2.8598 1.2822 6.1469 4.212 9.0668 8.0814 1.3509 1.7902 2.617 3.3168 2.8135 3.3923 0.50907 0.1957 2.6062-8.9419 3.2335-14.089 1.0762-8.8305-0.18629-21.122-2.9134-28.364-6.2681-16.646-16.864-27.395-32.349-32.814-32.862-9.9192-66.301 14.48-60.615 43.11 5.385 20.665 33.165 29.849 45.978 20.948 0-0.20376-1.1664-1.7069-2.5921-3.3403-3.5633-4.0826-4.9486-7.1766-4.914-10.975 0.0198-2.1654 0.31237-3.5257 1.0769-5.0066 1.094-2.1189 5.6716-6.586 8.7511-9.2495 1.2302-1.064 0.88405-2.6487 0.0711-4.6346-5.0313-9.4923-18.299-9.2085-24.631-5.551-2.5976 1.606-4.9273 3.8998-5.0441 6.6902-0.14768 3.5288 3.0317 4.079 5.097 3.9154 6.4791-0.51303 10.278 4.1533 7.7352 9.5129-1.8295 3.8555-6.4513 5.9043-10.9 3.3886-22.499-12.724-3.4885-40.74 19.476-37.963 14.471 1.7495 24.05 10.243 28.034 23.991 2.8674 11.571-2.0387 23.05-9.077 29.798-11.981 11.488-30.865 16.228-48.023 5.3875-11.419-8.1323-19.402-20.834-19.485-34.412-0.0754-12.302 7.5136-27.105 17.964-35.508 4.4778-3.6006 12.128-7.5081 17.896-9.1406 6.0934-1.7246 14.922-2.6815 21.767-2.3592 8.8923 0.41871 13.155 1.6749 25.951 7.6481 2.323 1.0844 4.3574 1.8379 4.5207 1.6746 0.85245-0.85244-8.2101-9.1789-14.839-13.634-7.7185-5.1871-16.217-8.8659-24.82-10.744-4.1506-0.90591-12.556-1.0234-15.971-0.22322-5.9231 1.3877-7.9166 3.8292-8.4277 10.321-0.2472 3.1404-0.45208 3.8053-1.4447 4.6886-1.6373 1.4568-4.3092 1.3571-7.7383-0.289-3.6188-1.7372-6.1406-3.9914-7.7282-6.9084-2.4746-4.5467-1.1451-9.3019 4.8356-17.296 1.9447-2.5994 3.6598-5.1168 3.8114-5.5942s-0.26869-2.5739-0.9338-4.6589c-2.3357-7.322-2.0025-12.305 1.2042-18.01 1.4165-2.52 5.3565-6.5096 7.5478-7.6427 5.2164-2.6975 15.568-1.4045 18.49 2.3094 1.6632 2.1144 1.3834 2.5443-5.234 8.0418-6.0353 5.0139-4.8148 11.689 3.0955 16.93 1.2963 0.85891 6.7825 3.8796 12.192 6.7127 25.045 13.118 36.972 22.065 46.633 34.982 3.378 4.5163 5.6544 8.5477 9.2916 16.455 3.1958 6.9474 3.7645 7.9454 4.2506 7.4594 0.42851-0.42851-1.0564-8.3798-2.5627-13.722-4.5208-16.035-13.128-29.918-34.679-55.933-13.024-15.722-13.706-17.542-13.993-27.228-0.19257-6.5082 3.1078-11.781 9.1431-14.433 8.9146-1.8985 17.834-0.16707 21.013 8.4242 1.2531 3.3869-1.2301 8.2817-3.8002 9.7944-3.9444 2.3215-8.2355-0.0244-10.398-5.6846-1.7339-4.5375-3.3689-5.0681-6.085-1.9746-4.632 5.2756-0.18851 16.247 11.114 27.443 4.6112 4.5674 10.975 9.8345 11.881 9.8345 0.32267 0 1.9512-1.338 3.619-2.9732 2.9189-2.862 4.2985-3.5059 5.6205-2.6232 0.91322 0.60978 1.4788 2.1528 3.5723 9.7468 1.1393 4.1326 3.6349 12.557 5.5457 18.721 6.2805 19.956 11.208 41.175 7.9903 62.202-3.1557 17.552-10.272 31.463-16.468 46.146 0 0.22985 1.5952-0.0766 3.545-0.681 13.284-4.118 21.822-4.2929 29.776-0.61019 14.108 7.6163 13.889 25.838 3.7991 31.434-4.3593 2.2549-9.7657 2.2661-14.02 0.0405-10.797-4.8175-7.6287-21.383 1.0703-21.882 6.707-0.16467 7.9266 7.2174 6.7059 11.885-0.84667 3.1544-0.84561 3.2019 0.0712 3.2019 4.5318-1.8014 8.0694-7.1019 4.3508-12.2-12.761-13.943-35.533 0.1855-42.159 3.278-22.655 10.58-30.269 13.436-42.54 15.954-9.8729 2.0261-21.672 2.8673-29.549 2.1066zm-36.418-120.56c2.1251-0.44015 2.6602-4.9892 0.8051-6.8443-0.97636-0.97636-1.5367-1.1228-4.2973-1.1228-7.5978 0-15.242 4.4763-11.19 6.5528 3.2787 1.6802 10.186 2.3455 14.682 1.4143z"/>
     </g>
     <g transform="matrix(-.25892 0 0 .25892 -4407.8 -458.45)" filter="url(#a)">
      <path d="m-192.27-505.11c-18.733-5.56-33.519-13.306-45.506-29-13.801-18.569-12.589-42.595 3.1847-58.092 9.161-9.0003 25.309-12.11 35.918-8.0576 24.184 9.2383 28.924 36.836 13.774 51.786-10.736 10.594-24.721 8.1006-32.981 2.1269-6.4836-4.6887-12.118-12.815-10.056-21.966 2.1486-9.536 10.446-18.514 20.938-14.581 3.296 1.3772 5.877 5.6926 5.152 9.1491-1.1388 5.4288-8.826 8.3522-10.902 4.0204-1.3401-2.7966-3.8367-2.967-4.6694-2.6474-8.1564 13.387 6.7464 23.207 13.942 9.3784 4.2287-7.1841 9.1214-8.2682 15.363-6.3528 2.812 0.78423 3.3912 0.53414 3.3876-0.78609-0.0169-6.1454-2.6713-12.385-6.9827-16.413-13.801-12.246-36.169-5.8868-43.057 7.7092-4.3853 9.82-4.5264 19.793-1.5587 29.173 4.9376 15.327 18.26 27.104 39.773 35.161 8.7321 3.2702 10.283 3.9796 10.62 4.8561 0.40873 1.0651 0.35651 3.0896-0.0982 3.8065-0.39305 0.61972-4.6367 1.1156-6.2397 0.72911z"/>
      <path d="m-171.28-342.46c-15.925-1.5379-33.077-7.8605-47.688-17.579-3.611-2.4018-6.8249-4.367-7.142-4.367-0.40623 0-0.64221 1.25-0.7988 4.2311-0.23307 4.4373-0.99098 6.6109-3.4466 9.8843-2.5038 3.3376-8.006 4.2596-12.388 2.0757-2.6229-1.307-3.7407-2.8969-3.7295-5.3047 0.01-2.158 0.31988-2.4543 3.9882-3.8141 1.8103-0.67102 3.8133-1.7036 4.451-2.2947 1.0286-0.9533 1.1596-1.4367 1.1596-4.2807 0-4.4621-1.2867-9.5325-5.0862-20.044-6.4243-17.772-7.8351-24.714-7.8804-38.774-0.0275-8.545 0.0538-9.4728 1.2319-14.067 1.8914-7.3754 6.5382-20.763 8.3602-24.086 1.9254-3.5114 1.8775-3.8404-1.2553-8.6169-4.2908-6.542-5.9464-11.407-5.93-17.425 0.0206-7.581 2.7551-13.351 8.3031-17.519 3.1389-2.3585 6.2931-3.0337 9.6344-2.0624 3.2067 0.93221 5.5293 2.72 7.004 5.3912 1.8836 3.4118 1.3164 6.6449-1.7317 9.8709-2.5686 2.7186-4.3714 2.9646-9.4154 1.2848-4.6424-1.5461-5.0643-1.3217-5.0643 2.6936 0 6.1226 3.748 14.896 6.3693 14.91 0.39641 2e-3 3.6025-1.4453 7.1246-3.2164 10.505-5.2824 17.442-6.3198 23.252-3.4774 4.9551 2.4243 8.525 7.3412 8.5345 11.755 0.0189 8.8477-9.172 15.3-20.548 14.425-2.8954-0.22256-5.6145-0.88318-10.69-2.5971-7.6087-2.5695-7.6012-2.5701-9.0133 0.72421-2.8467 6.6411-2.9849 15.932-0.31363 21.095 1.7378 3.3588 6.0075 5.7272 10.837 6.0112 2.9726 0.1748 3.7912 0.0417 6.1314-0.99667 3.5122-1.5584 5.9391-1.6698 7.2738-0.33361 0.82536 0.82629 0.9989 1.5098 0.97743 3.8497-0.0642 6.9977-7.0617 14.367-14.469 15.238-3.3495 0.39366-7.0143-0.43842-12.447-2.826l-4.5283-1.9901c0.0523 11.474 3.1536 23.544 8.6144 30.499 8.3555 10.642 24.739 19.94 36.602 14.578 2.9159-1.3325 5.371-3.4005 6.4244-5.4115 0.35848-0.68433 0.77822-2.8456 0.93276-4.8029 0.49479-6.2668 2.1404-8.0522 6.4653-7.0147 6.1559 1.4768 11.673 9.394 10.928 15.683-0.46507 3.9268-3.1264 8.6336-7.4781 13.225-4.9022 5.1728-4.8571 5.2596 3.091 5.9415 15.757 0.86256 31.469 1.2166 45.732-5.7992 6.3543-3.1775 10.758-8.0875 11.923-13.295 1.1237-5.0212-1.5878-9.6094-7.4182-12.553-3.3146-1.6732-4.0686-2.4534-4.0686-4.2094 0-3.558 4.9715-9.3856 9.9348-11.646 3.4352-1.5642 8.4272-1.6762 11.586-0.25994 2.8598 1.2822 6.1469 4.212 9.0668 8.0814 1.3509 1.7902 2.617 3.3168 2.8135 3.3923 0.50907 0.1957 2.6062-8.9419 3.2335-14.089 1.0762-8.8305-0.18629-21.122-2.9134-28.364-6.2681-16.646-16.864-27.395-32.349-32.814-32.862-9.9192-66.301 14.48-60.615 43.11 5.385 20.665 33.165 29.849 45.978 20.948 0-0.20376-1.1664-1.7069-2.5921-3.3403-3.5633-4.0826-4.9486-7.1766-4.914-10.975 0.0198-2.1654 0.31237-3.5257 1.0769-5.0066 1.094-2.1189 5.6716-6.586 8.7511-9.2495 1.2302-1.064 0.88405-2.6487 0.0711-4.6346-5.0313-9.4923-18.299-9.2085-24.631-5.551-2.5976 1.606-4.9273 3.8998-5.0441 6.6902-0.14768 3.5288 3.0317 4.079 5.097 3.9154 6.4791-0.51303 10.278 4.1533 7.7352 9.5129-1.8295 3.8555-6.4513 5.9043-10.9 3.3886-22.499-12.724-3.4885-40.74 19.476-37.963 14.471 1.7495 24.05 10.243 28.034 23.991 2.8674 11.571-2.0387 23.05-9.077 29.798-11.981 11.488-30.865 16.228-48.023 5.3875-11.419-8.1323-19.402-20.834-19.485-34.412-0.0754-12.302 7.5136-27.105 17.964-35.508 4.4778-3.6006 12.128-7.5081 17.896-9.1406 6.0934-1.7246 14.922-2.6815 21.767-2.3592 8.8923 0.41871 13.155 1.6749 25.951 7.6481 2.323 1.0844 4.3574 1.8379 4.5207 1.6746 0.85245-0.85244-8.2101-9.1789-14.839-13.634-7.7185-5.1871-16.217-8.8659-24.82-10.744-4.1506-0.90591-12.556-1.0234-15.971-0.22322-5.9231 1.3877-7.9166 3.8292-8.4277 10.321-0.2472 3.1404-0.45208 3.8053-1.4447 4.6886-1.6373 1.4568-4.3092 1.3571-7.7383-0.289-3.6188-1.7372-6.1406-3.9914-7.7282-6.9084-2.4746-4.5467-1.1451-9.3019 4.8356-17.296 1.9447-2.5994 3.6598-5.1168 3.8114-5.5942s-0.26869-2.5739-0.9338-4.6589c-2.3357-7.322-2.0025-12.305 1.2042-18.01 1.4165-2.52 5.3565-6.5096 7.5478-7.6427 5.2164-2.6975 15.568-1.4045 18.49 2.3094 1.6632 2.1144 1.3834 2.5443-5.234 8.0418-6.0353 5.0139-4.8148 11.689 3.0955 16.93 1.2963 0.85891 6.7825 3.8796 12.192 6.7127 25.045 13.118 36.972 22.065 46.633 34.982 3.378 4.5163 5.6544 8.5477 9.2916 16.455 3.1958 6.9474 3.7645 7.9454 4.2506 7.4594 0.42851-0.42851-1.0564-8.3798-2.5627-13.722-4.5208-16.035-13.128-29.918-34.679-55.933-13.024-15.722-13.706-17.542-13.993-27.228-0.19257-6.5082 3.1078-11.781 9.1431-14.433 8.9146-1.8985 17.834-0.16707 21.013 8.4242 1.2531 3.3869-1.2301 8.2817-3.8002 9.7944-3.9444 2.3215-8.2355-0.0244-10.398-5.6846-1.7339-4.5375-3.3689-5.0681-6.085-1.9746-4.632 5.2756-0.18851 16.247 11.114 27.443 4.6112 4.5674 10.975 9.8345 11.881 9.8345 0.32267 0 1.9512-1.338 3.619-2.9732 2.9189-2.862 4.2985-3.5059 5.6205-2.6232 0.91322 0.60978 1.4788 2.1528 3.5723 9.7468 1.1393 4.1326 3.6349 12.557 5.5457 18.721 6.2805 19.956 11.208 41.175 7.9903 62.202-3.1557 17.552-10.272 31.463-16.468 46.146 0 0.22985 1.5952-0.0766 3.545-0.681 13.284-4.118 21.822-4.2929 29.776-0.61019 14.108 7.6163 13.889 25.838 3.7991 31.434-4.3593 2.2549-9.7657 2.2661-14.02 0.0405-10.797-4.8175-7.6287-21.383 1.0703-21.882 6.707-0.16467 7.9266 7.2174 6.7059 11.885-0.84667 3.1544-0.84561 3.2019 0.0712 3.2019 4.5318-1.8014 8.0694-7.1019 4.3508-12.2-12.761-13.943-35.533 0.1855-42.159 3.278-22.655 10.58-30.269 13.436-42.54 15.954-9.8729 2.0261-21.672 2.8673-29.549 2.1066zm-36.418-120.56c2.1251-0.44015 2.6602-4.9892 0.8051-6.8443-0.97636-0.97636-1.5367-1.1228-4.2973-1.1228-7.5978 0-15.242 4.4763-11.19 6.5528 3.2787 1.6802 10.186 2.3455 14.682 1.4143z"/>
     </g>
    </g>
   </g>
  </g>
 </g>
</svg>
