<?xml version="1.0" encoding="UTF-8"?>
<svg viewBox="0 0 960 720" xmlns="http://www.w3.org/2000/svg">
 <defs>
  <filter id="x">
   <feGaussianBlur stdDeviation="1.1202"/>
  </filter>
  <filter id="v">
   <feGaussianBlur stdDeviation="1.8683"/>
  </filter>
  <filter id="j">
   <feGaussianBlur stdDeviation="1.2111"/>
  </filter>
  <filter id="y" x="-.13717" y="-.13424" width="1.2743" height="1.2685">
   <feGaussianBlur stdDeviation="4.0233"/>
  </filter>
  <filter id="t" x="-1.1659" y="-.35116" width="3.3318" height="1.7023">
   <feGaussianBlur stdDeviation="7.4695"/>
  </filter>
  <filter id="s" x="-1.1452" y="-.2862" width="3.2904" height="1.5724">
   <feGaussianBlur stdDeviation="7.4695"/>
  </filter>
  <filter id="w" x="-1.9918" y="-.07153" width="4.9835" height="1.143">
   <feGaussianBlur stdDeviation="6.1715"/>
  </filter>
  <filter id="u" x="-.03449" y="-.17462" width="1.069" height="1.3492">
   <feGaussianBlur stdDeviation="3.0119"/>
  </filter>
  <filter id="r" x="-.04953" y="-.16501" width="1.0991" height="1.33">
   <feGaussianBlur stdDeviation="2.9104"/>
  </filter>
  <filter id="q" x="-.11467" y="-.13453" width="1.2293" height="1.2691">
   <feGaussianBlur stdDeviation="4.505"/>
  </filter>
  <filter id="p" x="-.21077" y="-.16598" width="1.4215" height="1.332">
   <feGaussianBlur stdDeviation="2.2379"/>
  </filter>
  <filter id="o" x="-.09018" y="-.17511" width="1.1804" height="1.3502">
   <feGaussianBlur stdDeviation="7.9292"/>
  </filter>
  <filter id="n" x="-.10919" y="-.7452" width="1.2184" height="2.4904">
   <feGaussianBlur stdDeviation="3.5794"/>
  </filter>
  <filter id="m" x="-.0778" y="-.18494" width="1.1556" height="1.3699">
   <feGaussianBlur stdDeviation="2.6027"/>
  </filter>
  <filter id="l" x="-.08337" y="-.14091" width="1.1668" height="1.2818">
   <feGaussianBlur stdDeviation="1.4233"/>
  </filter>
  <filter id="k" x="-.10659" y="-.12319" width="1.2132" height="1.2464">
   <feGaussianBlur stdDeviation="1.9685"/>
  </filter>
  <filter id="i" x="-.08402" y="-.38748" width="1.168" height="1.775">
   <feGaussianBlur stdDeviation="7.019"/>
  </filter>
  <filter id="h" x="-.57501" y="-2.9403" width="2.15" height="6.8806">
   <feGaussianBlur stdDeviation="25.7684"/>
  </filter>
  <filter id="g" x="-.53495" y="-.2225" width="2.0699" height="1.445">
   <feGaussianBlur stdDeviation="4.2375"/>
  </filter>
  <filter id="f" x="-.03506" y="-.67516" width="1.0701" height="2.3503">
   <feGaussianBlur stdDeviation="2.0305"/>
  </filter>
  <filter id="e" x="-.0354" y="-.5697" width="1.0708" height="2.1394">
   <feGaussianBlur stdDeviation="2.1123"/>
  </filter>
  <filter id="d" x="-.0202" y="-.33283" width="1.0404" height="1.6657">
   <feGaussianBlur stdDeviation="1.2479"/>
  </filter>
  <filter id="c" x="-.12521" y="-1.3095" width="1.2504" height="3.619">
   <feGaussianBlur stdDeviation="3.7604"/>
  </filter>
  <filter id="a" x="0" y="0" width="1" height="1">
   <feColorMatrix in="SourceGraphic" result="result0" values="1 0 0 0 0 0 1 0 0 0 0 0 1 0 0 0 0 0 0.85 0"/>
   <feGaussianBlur in="SourceAlpha" stdDeviation="7"/>
   <feSpecularLighting result="result1" specularConstant=".9" specularExponent="25" surfaceScale="5">
    <feDistantLight azimuth="225" elevation="60"/>
   </feSpecularLighting>
   <feComposite in2="result0" operator="atop"/>
  </filter>
  <filter id="b" x="-.04588" y="-.65034" width="1.0918" height="2.3007">
   <feGaussianBlur stdDeviation="2.1505"/>
  </filter>
 </defs>
 <path d="m685.5 129.51c17.748-25.395 29.305-16.507 39.422-41.902l0.96434-29.895s-177.44 1.9287-182.26 1.9287-49.182 8.6792-49.182 8.6792c-69.57-14.428-143.2-8.5457-215.05-11.572l10.608 53.04 13.019 16.394c-4.7799 47.161 5.3877 113.8 7.3582 156.17l2.7675 56.948c0.44805 74.479-11.588 54.436 4.8218 249.77l-33.752 42.432v44.36l211.19-10.608 32.788-1.9287 45.325 6.7505 156.23-0.96436 0.96435-35.681-15.43-26.038-20.251-51.111c0.10995-42.256-2.6781-85.96-6.1506-130.01-4.173-26.488-3.393-52.005-0.0193-78.325-1.0397-68.288 7.6826-190.15-3.3566-218.44z" fill="#fddb41" stroke="#000" stroke-width="1.0729"/>
 <path transform="matrix(1.7881 0 0 1.7881 -332.01 -79.242)" d="m390.12 406.79c2.1152-0.20567 4.2034-0.59974 6.2992-0.94135 2.6162-0.38006 5.231-0.77052 7.8327-1.2396 1.6222-0.36138 3.2113-0.87196 4.7602-1.4721 1.149-0.43421 2.3276-0.78631 3.478-1.2152 1.4289-0.488 2.834-1.0395 4.2488-1.5659 1.509-0.64506 3.0179-1.283 4.6068-1.7022 1.2256-0.29579 2.4866-0.34675 3.7412-0.37246 1.8628-0.0557 3.7155 0.0203 5.5713 0.17296 2.0889 0.18232 4.1802 0.25676 6.258 0.54328 1.6518 0.25913 3.2827 0.61821 4.9436 0.82686 1.7748 0.31357 3.5392 0.68734 5.2974 1.0831 2.4505 0.53513 4.9186 0.96602 7.3987 1.3395 2.8438 0.44833 5.684 0.92583 8.5345 1.3298 2.2886 0.37238 4.5615 0.83412 6.8566 1.1644 2.7417 0.33779 5.5076 0.37252 8.266 0.40819 3.2844 0.0268 6.5689 0.0185 9.8533 0.0157 2.8121-4e-3 5.6242-6e-3 8.4363-7e-3l7.7239-6.1e-4 8.3859 1.5e-4c2.6458 0.0477 5.2948-0.0918 7.9202-0.42096 2.5092-0.31643 5.0145-0.6701 7.5111-1.0742 2.2967-0.39784 4.5637-0.90004 6.8842-1.1506 1.038-0.098 2.0796-0.14106 3.121-0.18264l-0.33121 0.45061c-1.0371 0.0428-2.0745 0.0867-3.1079 0.18956-2.3153 0.26016-4.5792 0.76836-6.8742 1.1544-2.4998 0.39722-5.0057 0.75973-7.5178 1.07-2.6339 0.3133-5.2875 0.45768-7.9402 0.40501l-8.3861 5e-5 -7.7238 5.9e-4 -8.4339 4e-3c-3.2855 3e-3 -6.571 0.01-9.8564-0.0165-2.7668-0.036-5.5413-0.0745-8.2904-0.4219-2.2938-0.33573-4.5668-0.7945-6.8552-1.1653-2.8498-0.41005-5.6903-0.88565-8.5345-1.3325-2.485-0.37635-4.9584-0.80759-7.414-1.3444-1.7545-0.3885-3.512-0.77038-5.2844-1.0681-1.6595-0.21667-3.2908-0.57794-4.9438-0.82939-2.074-0.28146-4.1627-0.35159-6.2465-0.53887-1.8516-0.14755-3.7011-0.21065-5.5589-0.153-1.2412 0.0306-2.4884 0.0912-3.6974 0.39965-1.5789 0.43498-3.0789 1.0815-4.5884 1.7107-1.4144 0.53132-2.824 1.0743-4.2522 1.5684-1.1557 0.41254-2.3252 0.78612-3.475 1.2157-1.5638 0.58268-3.1538 1.109-4.7906 1.4462-2.6027 0.4646-5.2186 0.84895-7.8339 1.2357-2.0977 0.34697-4.1906 0.72428-6.3057 0.95204l0.31353-0.47182z" fill="none" filter="url(#d)" stroke="#dabf44" stroke-width="3.5"/>
 <path transform="matrix(1.7881 0 0 1.7881 -332.01 -79.242)" d="m514.11 418.45c27.492-8.2082 85.141 8.481 71.392-33.775l8.8988 14.359-0.80898 19.011-79.482 0.40448z" fill="#d3b944" filter="url(#m)"/>
 <path d="m318.8 588.28 388.41 0.062-12.786-31.453-1.5343-60.093-381.25 0.12409 7.16 91.359z" fill="#fff" stroke="#000" stroke-width="1.0729"/>
 <path transform="matrix(1.7881 0 0 1.7881 -332.01 -79.242)" d="m359.95 325.5 107.55-1.2135v20.629l-105.66 0.40449-1.8906-19.82z" filter="url(#h)"/>
 <path d="m313.14 510.96 185.16-2.1698v36.887l-181.9 0.72326-3.2547-35.44z" fill="#ca2021" stroke="#000" stroke-width=".17881"/>
 <path transform="matrix(1.7881 0 0 1.7881 -332.01 -79.242)" d="m373.25 370.2 171.9-11.441c17.851-2.5216 24.037-17.528 28.316-32.034l0.28602 40.614-200.5 2.8602z" filter="url(#i)"/>
 <path transform="matrix(1.7881 0 0 1.7881 -332.01 -79.242)" d="m360.2 323.4c44.593-20.443 68.282-15.954 112.59-15.138 44.022 0.057 70.718-11.628 95.927-47.853l1.3595-24.577 0.34822-21.106c-13.585 19.639-19.489 34.902-37.382 48.927-19.44 15.316-26.158 22.62-54.262 21.049-41.651-2.7629-85.084-14.929-119.39 21.088l0.80899 17.61z" fill="#fff" filter="url(#o)"/>
 <path transform="matrix(1.7881 0 0 1.7881 -332.01 -79.242)" d="m363.23 371.73c44.679-7.3113 116.11-6.7362 163.01-11.484 34.579-3.5007 38.888-9.9062 46.587-29.912 0 0-3.7098 26.431-5.3278 28.049s-31.955 8.8988-31.955 8.8988l-125.39 2.8314-46.921 1.618z" fill="#fff" filter="url(#u)"/>
 <path d="m319.55 583.74 326.29-18.411c31.919-4.5088 39.911-33.899 47.563-59.837l1.5343 51.143 11.251 28.64-386.64-1.5343z" fill="#cf1f20"/>
 <path transform="matrix(1.7881 0 0 1.7881 -332.01 -79.242)" d="m362.22 338.57 78.673-0.20224v11.528l-78.066-0.40449-0.60673-10.921z" fill="#af2425" filter="url(#n)"/>
 <path transform="matrix(1.7881 0 0 1.7881 -332.01 -79.242)" d="m439.16 370.17c27.891-3.0029 132.03 1.9898 133.59-22.561l0.14301-18.734 0.85805 27.172 6.4354 15.159-141.02-1.0358z" fill="#ae2425" filter="url(#r)"/>
 <path transform="matrix(1.7881 0 0 1.7881 -332.01 -79.242)" d="m370.68 158.26 5.7203 65.212 1.1441 60.636" fill="none" filter="url(#w)" stroke="#fff" stroke-width="4.5"/>
 <path transform="matrix(2.9749 0 0 2.9749 -834.17 -181.87)" d="m449.03 106.58c-3.4432 0-6.7815 0.4612-9.9688 1.2812l-1.6875 5c-0.70615 0.24587-1.4089 0.52376-2.0938 0.8125l-4.875-2.5c-5.6202 2.969-10.465 7.265-14.094 12.438l2.1875 4.8125c-0.93574 1.6069-1.7303 3.3071-2.4062 5.0625l-5.4375 2.0312c-0.99356 3.4839-1.5312 7.166-1.5312 10.969 0 2.1724 0.16589 4.2968 0.5 6.375l5.1562 1.9062c0.66476 2.6415 1.6519 5.1645 2.875 7.5312l-2.4375 5.375c2.9262 4.66 6.7771 8.6806 11.312 11.781l5.1875-2.5625c2.2052 1.2429 4.533 2.2508 7 3l1.9062 5.5938c2.7097 0.58094 5.523 0.875 8.4062 0.875 2.5976 0 5.1345-0.21349 7.5938-0.6875l1.8438-5.5938c2.6087-0.73019 5.1421-1.7535 7.4688-3.0312l5.2812 2.625c4.4467-2.9785 8.2175-6.8684 11.156-11.344l-2.4062-5.3125v-0.0625c1.4276-2.6279 2.5251-5.491 3.25-8.4688l5.2188-1.9375c0.30273-1.9813 0.5-3.9966 0.5-6.0625 0-3.688-0.53226-7.2662-1.4688-10.656l-5.5-2.0312c-0.79595-2.1284-1.7334-4.1519-2.9062-6.0625l2.1562-4.8125c-3.6526-4.9829-8.4354-9.0582-13.969-11.906l-5 2.4688c-0.798-0.32473-1.6116-0.60831-2.4375-0.875l-1.6875-4.9688c-2.9226-0.68164-5.9635-1.0625-9.0938-1.0625zm0.0625 22.375c9.0376 0 16.375 7.3374 16.375 16.375s-7.3374 16.344-16.375 16.344-16.375-7.3062-16.375-16.344 7.3374-16.375 16.375-16.375z" fill="#fff" filter="url(#x)"/>
 <path d="m548.57 249.83c0 27.214-22.061 49.275-49.275 49.275s-49.275-22.061-49.275-49.275 22.061-49.275 49.275-49.275 49.275 22.061 49.275 49.275zm-48.677-103.9c-9.0968 0-17.932 1.2301-26.353 3.3966l-4.4507 13.235c-1.8656 0.64957-3.6954 1.3454-5.5048 2.1082l-12.884-6.559c-14.848 7.8439-27.658 19.129-37.245 32.795l5.7391 12.766c-2.4722 4.2454-4.539 8.7145-6.3247 13.352l-14.406 5.3877c-2.6249 9.2042-3.9822 18.883-3.9822 28.93 0 5.7394 0.40568 11.375 1.2884 16.866l13.586 5.0363c1.7562 6.9787 4.3817 13.658 7.613 19.911l-6.4418 14.172c7.7309 12.311 17.884 22.963 29.867 31.155l13.704-6.7932c5.8261 3.2836 11.988 5.9852 18.506 7.9644l5.0363 14.758c7.1589 1.5348 14.636 2.3425 22.254 2.3425 6.8626 0 13.531-0.62168 20.028-1.874l4.9192-14.758c6.892-1.9291 13.53-4.5888 19.677-7.9644l13.938 6.9103c11.748-7.869 21.751-18.16 29.515-29.984l-6.3247-14.055v-0.11694c3.7715-6.9426 6.6348-14.504 8.55-22.371l13.821-5.1535c0.79979-5.2345 1.2884-10.588 1.2884-16.046 0-9.7433-1.391-19.153-3.8651-28.11l-14.523-5.3877c-2.1028-5.6232-4.6317-10.998-7.7302-16.046l5.7391-12.649c-9.6499-13.165-22.275-23.982-36.894-31.506l-13.235 6.5589c-2.1082-0.8579-4.2598-1.6379-6.4418-2.3425l-4.4507-13.118c-7.7213-1.8008-15.741-2.811-24.01-2.811z" fill="#fdee6f"/>
 <path transform="matrix(2.771 0 0 2.771 -744.81 -153.46)" d="m427.88 177.52 4.6716-2.4788c2.201 1.1101 4.3548 2.598 6.6737 2.7648l1.9544 5.5297c5.1581 1.1638 10.223 0.92318 15.254 0.19068l1.7638-5.2913c3.2547-1.2656 5.7712-2.0134 7.1504-3.0985l4.8623 2.7648c4.79-3.4874 8.2853-7.1272 10.916-10.869l-2.4788-5.1006c1.2452-2.119 2.2335-4.9231 3.0985-8.0561l5.053-2.0975c0.57943-4.3667 1.0538-8.8437-0.85805-15.826l-5.2913-1.8114c-0.79477-1.968-1.6837-4.0453-2.9078-5.9587l2.1928-4.3379c-3.5945-5.2344-8.318-8.5821-13.061-11.631 8.6852 21.053 12.841 36.295 7.3004 47.411-13.55 21.219-37.642 12.267-57.258 6.5512 3.3274 5.2501 7.1282 9.0181 10.964 11.345z" fill="#f6a520" filter="url(#y)"/>
 <path transform="matrix(1.7881 0 0 1.7881 -332.01 -79.242)" d="m404.21 153.61c-7.0029 18.021-10.804 55.61 1.5737 70.55 23.591-11.415 33.001-11.188 43.661-13.063 13.787-2.4306 24.305-1.8102 33.525-0.0239 11.833 1.9605 24.225 3.782 36.125 1.8566 4.6151-1.5118 6.8682-4.4183 9.6489-9.7774 8.9494-20.057-1.8489-41.803-9.321-55.298-3.0768 6.8776-9.1658 10.088-16.859 11.344-14.149 0.54148-29.519 1.5289-43.235-3.127-11.491-4.0184-20.818-11.02-37.099-10.972-7.8593-0.25516-13.989 0.61021-18.02 8.5094z" fill="#ededed" filter="url(#v)"/>
 <path d="m394.59 203.27c-11.976 28.928-18.477 89.266 2.6914 113.25 40.344-18.323 56.438-17.959 74.668-20.968 23.579-3.9016 41.565-2.9058 57.333-0.0383 20.237 3.147 41.428 6.0709 61.78 2.9802 7.8926-2.4267 11.746-7.0923 16.501-15.695 15.305-32.195-3.1618-67.102-15.94-88.765-5.2619 11.04-15.675 16.193-28.832 18.21-24.197 0.86918-50.482 2.4542-73.939-5.0194-19.651-6.4505-35.602-17.689-63.445-17.612-13.441-0.4096-23.923 0.97951-30.817 13.659z" fill="#cf1f20"/>
 <path transform="matrix(1.7881 0 0 1.7881 -332.01 -79.242)" d="m407.86 221.19c5.6902-7.838 9.1636-13.932 7.7526-24.199-1.2348-6.277-1.5166-13.249-4.2044-19.466-2.4225-5.9907-3.476-12.447-4.9783-18.973-6.6138 12.66-7.4863 33.407-4.5735 49.65 0.83992 4.6838 2.7118 9.0578 6.0036 12.987z" fill="#992728" filter="url(#s)"/>
 <path transform="matrix(-1.7881 0 0 1.7881 1316.7 -58.785)" d="m410.03 177.81c-1.2348-6.277-1.9211-10.822-4.6089-17.039-2.4225-5.9907 1.1756-9.6159-0.32664-16.142-6.6138 12.66-12.542 23.295-9.6296 39.538 4.3385 20.593 15.448 10.495 14.565-6.3576z" fill="#992728" filter="url(#t)"/>
 <text x="387.86563" y="275.83441" fill="#fff" font-family="Comic Sans MS" font-size="71.524" stroke="#fff8f8" stroke-width="1.7881">
  <tspan x="387.86563" y="275.83441" stroke-width="1.7881">CHIPS</tspan>
 </text>
 <path d="m285.73 630.88 62.968-1.622" fill="none" stroke="#000" stroke-width=".71524"/>
 <path transform="matrix(1.7881 0 0 1.7881 -332.01 -79.242)" d="m344.81 397.67-0.0123 24.243 40.972-2.1286s-31.846-3.1521-32.251-3.9611-8.7088-17.951-8.7088-18.153z" fill="#d9be44" filter="url(#l)"/>
 <path d="m283.49 638.98 164.54-3.6163" fill="none" stroke="#000" stroke-width=".71524"/>
 <path d="m283.85 648.02 145.65-2.9108" fill="none" stroke="#000" stroke-width=".71524"/>
 <path d="m284.26 657.89 214.8-5.6257" fill="none" stroke="#000" stroke-width=".71524"/>
 <path d="m283.23 670.68 109.45-4.6028" fill="none" stroke="#000" stroke-width=".71524"/>
 <path d="m729.71 656.87-157.01-1.0228" fill="none" stroke="#000" stroke-width=".71524"/>
 <path d="m732.27 639.99-160.59-2.5572" fill="none" stroke="#000" stroke-width=".71524"/>
 <path d="m725.11 625.16-143.2 4.6028" fill="none" stroke="#000" stroke-width=".71524"/>
 <path d="m722.55 618.51-57.28 1.5343" fill="none" stroke="#000" stroke-width=".71524"/>
 <text transform="matrix(1.3909 0 0 2.2987 -332.01 -79.242)" x="671.70007" y="280.17551" filter="url(#a)" font-family="Bitstream Vera Sans" font-size="25.466">
  <tspan x="671.70007" y="280.17551">24g</tspan>
 </text>
 <path transform="matrix(1.7881 0 0 1.7881 -332.01 -79.242)" d="m386.55 77.148-35.048 7.3993 4.1388 30.337-7.5423-9.6138-5.8752-28.739 44.326 0.6169z" fill="#d9be44" filter="url(#k)"/>
 <path d="m281.19 64.639 139.62-1.0228" fill="none" stroke="#000" stroke-width=".71524"/>
 <path transform="matrix(1.7881 0 0 1.7881 -332.01 -79.242)" d="m393.58 96.909c1.9534 0.29749 3.9296 0.37073 5.9014 0.43433 2.4964 0.09847 4.9852 0.0751 7.4762-0.10046 3.5978-0.17475 7.159-0.71244 10.721-1.2113 4.228-0.63194 8.4728-1.1162 12.7-1.7564 3.1589-0.52213 6.3069-1.1172 9.4772-1.5664 1.8962-0.34415 3.7844-0.72602 5.7029-0.92368 1.418-0.15943 2.8206-0.41062 4.2459-0.53117 1.6068-0.26827 3.2181-0.49777 4.843-0.61745 2.5913-0.07188 5.1944 0.17691 7.7562 0.55731 2.9688 0.44088 5.898 1.102 8.8482 1.6456 2.1001 0.53238 4.2506 0.78679 6.3749 1.1948 1.3252 0.34519 2.7121 0.3031 4.0464 0.56224 1.9645 0.41809 3.9621 0.62787 5.9516 0.88619 3.4224 0.43261 6.8685 0.60933 10.314 0.71591 3.0899 0.07451 6.1809 0.07278 9.2715 0.0718 2.7578 0.03448 5.5044-0.32062 8.222-0.75724 3.2256-0.53617 6.4534-1.0645 9.6735-1.6331 2.3592-0.45342 4.7693-0.7308 7.0797-1.4079l-0.29067 0.48026c-2.3244 0.6373-4.7252 0.94732-7.0913 1.386-3.2225 0.56415-6.4501 1.1019-9.678 1.6337-2.7282 0.42869-5.4828 0.7838-8.2503 0.73979-3.0915-0.0022-6.1835-0.0025-9.2742-0.07899-3.4513-0.11103-6.9026-0.29575-10.331-0.72729-1.9955-0.25409-3.9979-0.4691-5.9687-0.88382-1.3394-0.23238-2.7182-0.23007-4.0443-0.5672-2.1229-0.40763-4.2715-0.66677-6.3704-1.1978-2.946-0.55021-5.8734-1.2053-8.8398-1.6431-2.5522-0.3693-5.1457-0.61631-7.7259-0.52001-1.6236 0.12845-3.232 0.36757-4.8408 0.61837-1.4232 0.12875-2.8244 0.388-4.2437 0.53462-1.9131 0.20609-3.7969 0.58976-5.6912 0.92045-3.1672 0.45481-6.314 1.0436-9.4714 1.5608-4.2278 0.63645-8.4736 1.1175-12.701 1.7542-3.568 0.50283-7.1359 1.0309-10.739 1.211-2.497 0.17246-4.9928 0.18522-7.4946 0.08898-1.9816-0.06605-3.967-0.14371-5.9299-0.44417l0.37012-0.42886z" fill="none" filter="url(#f)" stroke="#dabf44" stroke-width="3.5"/>
 <path d="m283.75 74.867 157.01 1.0228 40.403 9.2057" fill="none" stroke="#000" stroke-width=".71524"/>
 <path d="m285.79 84.585 148.83-2.0457" fill="none" stroke="#000" stroke-width=".71524"/>
 <path d="m286.81 94.813c2.0457 0 163.66-2.5571 163.66-2.5571l35.288 4.0914" fill="none" stroke="#000" stroke-width=".71524"/>
 <path transform="matrix(1.7881 0 0 1.7881 -332.01 -79.242)" d="m544.37 77.908c11.913 3.406 48.191-4.1271 34.451 18.37l-9.8262 19.988 9.0172-9.0663c8.2299-4.8324 10.501-9.2924 12.776-13.753l0.97652-16.989-47.395 1.4504z" fill="#e3c743" filter="url(#j)"/>
 <path d="m512.87 100.95c2.5571-1.0229 23.014-6.6486 23.014-6.6486l189.23-7.6714" fill="none" stroke="#000" stroke-width=".71524"/>
 <path d="m567.08 75.89c3.0686 0.51143 157.52-0.51143 157.52-0.51143" fill="none" stroke="#000" stroke-width=".71524"/>
 <path d="m572.7 66.173c2.5571 0 153.43-0.51143 153.43-0.51143" fill="none" stroke="#000" stroke-width=".71524"/>
 <path d="m693.4 504.47h-382.55" fill="none" stroke="#000" stroke-width="1.0729"/>
 <path d="m705.33 584.75h-387.25" fill="none" stroke="#000" stroke-width="1.0729"/>
 <path d="m301.57 124.01c5.7861 0 386.1 2.129 386.1 2.129" fill="none" stroke="#000" stroke-width=".53643"/>
 <path d="m312.06 491.79c79.736-32.744 122.09-25.554 201.32-24.247 78.715 0.0914 126.45-18.625 171.53-76.649l2.4308-39.367 0.62265-33.807c-24.291 31.457-34.849 55.905-66.843 78.368-34.761 24.533-46.773 36.232-97.026 33.716-74.476-4.4254-152.14-23.913-213.47 33.778l1.4465 28.207z" fill="#cf1f20"/>
 <path transform="matrix(1.7881 0 0 1.7881 -332.01 -79.242)" d="m385.07 287.6c-4.7977 5.7792-11.681 10.646-13.97 17.523-0.14939 7.1321-3.9483 12.018-11.109 14.836l-0.40448-16.584c9.5873-9.1337 15.517-12.017 25.483-15.775z" fill="#ae2425" filter="url(#p)"/>
 <path transform="matrix(1.7881 0 0 1.7881 -332.01 -79.242)" d="m569.17 225.76c-5.2996 22.711-12.745 36.266-22.76 45.633-16.088 15.048-38.807 19.285-69.91 33.308 1.7827 2.1549 29.745-0.57141 30.318-1.7161 27.469-6.4714 47.823-20.058 62.352-39.47-0.0438-8.5184-0.40795-17.117 1.618-25.118 0 0 0.0981-16.641-1.618-12.636z" fill="#b32324" filter="url(#q)"/>
 <text transform="matrix(1.7881 0 0 1.7881 -332.01 -79.242)" x="367.30817" y="343.32803" filter="url(#a)" font-family="Bitstream Vera Sans" font-size="14.739" stroke="#000" stroke-width=".36848">
  <tspan x="367.30817" y="343.32803" stroke-width=".36848">vector chips</tspan>
 </text>
 <path transform="matrix(1.7881 0 0 1.7881 -332.01 -79.242)" d="m417.43 384.27 15.371 4.0449 12.944-4.0449 40.449 1.618 22.651 1.618 27.505-6.4718 24.269-1.618" fill="none" filter="url(#e)" stroke="#dabf44" stroke-width="3.2"/>
 <path transform="matrix(1.7881 0 0 1.7881 -332.01 -79.242)" d="m566.69 272.64 0.80899 29.932 3.2359 14.966-19.011 0.80899" fill="none" filter="url(#g)" stroke="#fff" stroke-width="3.5"/>
 <path transform="matrix(1.7881 0 0 1.7881 -332.01 -79.242)" d="m493.67 121.65 46.322 5.1758 25.754-6.892" fill="none" filter="url(#c)" stroke="#fff" stroke-width="4"/>
 <path transform="matrix(1.7881 0 0 1.7881 -332.01 -79.242)" d="m353.62 103.94c2.4262-0.37547 4.8267-0.88668 7.2645-1.2038 1.9126-0.0853 3.7734-0.51797 5.6588-0.80887 1.8236-0.458 3.6691-0.78451 5.5392-0.96978 1.6644-0.13879 3.3356-0.14539 5.0045-0.15186l4.8528 6e-3c1.8013 0.24357 3.5913 0.51517 5.364 0.91758 2.0868 0.36962 4.074 1.1602 6.0692 1.8591 1.9905 0.86668 4.0491 1.5047 6.1897 1.855 1.7722 0.53612 3.6183 0.67293 5.4254 1.0203 1.7267 0.40469 3.4817 0.62827 5.2487 0.74649 1.399 0.32293 2.7946 0.61167 4.2243 0.75586 1.559 0.12529 3.1242 0.128 4.6872 0.1348l5.7059-2e-3 6.2462-3e-3 5.0515-7.1e-4 4.8446 1e-5 4.8502 1e-5 6.1017 9.3e-4c1.674 0.01 3.3271 0.0866 4.9722-0.24856 1.421-0.37128 2.8999-0.34819 4.3334-0.62124 1.5117-0.20712 2.949-0.64361 4.4109-1.0545l-0.41359 0.68441c-1.4647 0.42488-2.9248 0.81009-4.4369 1.0367-1.439 0.23387-2.9086 0.26616-4.3297 0.62491-1.6607 0.30547-3.3347 0.20848-5.0175 0.21213l-6.1031 9.3e-4h-4.8502l-4.8446-6e-5 -5.0506-4.8e-4 -6.2449 2e-3c-1.9031 2e-3 -3.8063 8e-3 -5.7094 4e-3 -1.5712-9e-3 -3.1451-0.0141-4.7115-0.15292-1.4246-0.15602-2.8129-0.46464-4.2152-0.75019-1.7758-0.12946-3.5372-0.37035-5.2742-0.77014-1.8098-0.32764-3.6456-0.50676-5.4216-1.0166-2.151-0.37343-4.2172-1.0327-6.2256-1.8909-1.9895-0.68812-3.964-1.4776-6.0456-1.8343-1.7537-0.3934-3.5288-0.66532-5.3138-0.8735-1.6171-2e-3 -3.2342-7e-3 -4.8513-5e-3 -1.661 8e-3 -3.3245 0.0186-4.98 0.16848-1.8652 0.19789-3.7006 0.54916-5.526 0.97931-1.8843 0.30089-3.7513 0.69971-5.6625 0.80106-2.4369 0.32548-4.8372 0.84152-7.2655 1.2111l0.44855-0.66225z" fill="none" filter="url(#b)" stroke="#dabf44" stroke-width="4"/>
</svg>
