<?xml version="1.0" encoding="UTF-8"?>
<svg enable-background="new 0 0 109.26 189.854" viewBox="0 0 109.26 189.854" xmlns="http://www.w3.org/2000/svg">
 <path d="m6.138,19.206c-2.232,2.88-3.852,6.372-4.86,10.62-1.08,4.248-1.224,2.916-1.26,14.76-.108,11.916.648,39.564.9,55.584 .072,15.732.036,27.145.324,38.809 .252,11.663-1.296,23.292 1.584,30.852 2.988,7.38 8.352,10.152 15.66,13.464 7.128,3.276 16.848,5.04 26.784,5.977 9.828.792 22.104,1.079 31.824-1.08 9.648-2.341 20.017-8.856 25.416-12.349 5.148-3.563 4.824-3.815 5.977-8.676 .972-4.968.756-7.56.756-20.844-.145-13.572-.324-42.732-.685-59.148-.396-16.452-.72-29.016-1.116-38.232-.432-9.144-.107-11.16-1.367-16.2-1.44-5.148-3.528-9.756-6.696-14.22 .144-1.008.324-2.016.54-3.456 .107-1.44.252-3.024.432-4.896-3.492-3.384-8.855-5.796-16.235-7.524-7.598-1.765-17.318-2.917-28.046-2.629-10.836.216-27.36,1.548-35.82,3.996-8.424,2.34-13.176,5.688-14.4,10.188 .072,1.656.18,3.312.288,5.004z" fill-rule="evenodd" stroke="#000" stroke-miterlimit="10" stroke-width=".036"/>
 <path d="m50.202,10.098c-3.06-2.16-6.048-3.672-8.82-4.968-2.916-1.332-5.868-2.124-8.028-2.52-2.232-.36-3.816-.072-5.04.324-1.152.288-1.62.612-2.088,1.26-.576.504-1.476,1.152-1.188,2.232 .144,1.08.432,2.628 2.232,4.068 1.692,1.296 4.284,2.952 8.064,3.996 3.78.972 8.46,1.476 14.328,1.656-1.224-1.296-1.764-2.376-1.62-3.384 .036-1.008.756-1.944 2.16-2.664z" fill="#fff" fill-rule="evenodd" stroke="#000" stroke-miterlimit="10" stroke-width=".036"/>
 <path d="m46.854,9.558c-6.768-3.168-11.376-5.004-14.364-5.112-2.988-.216-3.6,2.628-3.204,3.96 .324,1.296 2.268,2.7 5.292,3.816 2.988.972 6.948,1.944 12.312,2.52-1.656-1.476-2.484-2.52-2.484-3.42-.072-.828.792-1.512 2.448-1.764z" fill-rule="evenodd" stroke="#000" stroke-miterlimit="10" stroke-width=".036"/>
 <path d="m53.37,9.882c-.9.324-2.232,1.044-2.484,2.16-.324,1.188-.936,3.564.396,4.788 1.26,1.008 5.041,2.34 6.876,1.656 1.691-.828 3.42-4.428 3.239-5.94-.359-1.512-3.815-2.664-5.111-3.06-1.332-.54-2.124-.036-2.916.396z" fill="#fff" fill-rule="evenodd" stroke="#000" stroke-miterlimit="10" stroke-width=".036"/>
 <path d="m54.594,12.222c-.756.252-1.044,2.052-.576,2.772 .36.648 2.124,1.404 2.952,1.152 .792-.36 1.692-2.304 1.44-2.916-.432-.72-3.096-1.332-3.816-1.008z" fill-rule="evenodd" stroke="#000" stroke-miterlimit="10" stroke-width=".036"/>
 <path d="m76.698,19.818c2.195-.108 3.708-.72 4.68-1.692 .9-1.116 1.692-3.384.864-4.464s-2.916-1.908-6.12-2.088c-3.42-.216-8.064-.18-14.076.504-.036-.972-.396-1.62-1.368-2.34-1.044-.756-2.952-1.692-4.32-1.692-1.439-.108-2.7.36-3.923,1.404l-2.772-1.44c1.224-.864 3.924-1.44 8.1-1.584 4.14-.288 11.412-.36 16.813.468 5.363.72 11.951,2.952 15.048,4.356 2.88,1.26 4.644,2.592 2.52,3.996-2.27,1.44-7.238,2.916-15.446,4.572z" fill="#fff" fill-rule="evenodd" stroke="#000" stroke-miterlimit="10" stroke-width=".036"/>
 <path d="m48.69,16.866c-.36,0 .036.288 1.044.72 1.044.468 3.132,1.584 5.148,1.836 1.98.072 3.996-.216 6.444-1.008 .144.324.756.756 1.979,1.152 1.225.396 2.772.756 5.076,1.224-2.268.216-5.292.36-9.216.576-4.032.144-8.928.54-14.112.504-5.256-.072-11.376-.432-16.848-1.08-5.58-.864-10.728-1.944-15.984-3.636-.252-1.188.792-2.376 2.844-3.708 2.052-1.368 5.22-2.628 9.648-4.068 1.98,2.016 4.068,3.564 6.696,4.788 2.484,1.116 5.544,1.836 8.496,2.304 2.917.504 5.797.504 8.785.396z" fill="#fff" fill-rule="evenodd" stroke="#000" stroke-miterlimit="10" stroke-width=".036"/>
 <path d="m39.87,3.042c4.644-.756 8.856-1.08 13.068-1.368 4.104-.36 7.127-.288 11.592-.072 4.319.252 10.584.972 14.615,1.584 3.96.54 6.372.792 9.181,1.728 2.771.864 5.544,2.232 7.199,3.276 1.513.9 2.089,1.584 2.017,2.592-.18.9-1.008,1.944-2.772,3.132-.359-1.296-1.691-2.556-4.14-3.78-2.448-1.368-5.868-2.736-10.548-3.672-4.86-1.044-12.492-1.548-18.036-1.656-5.58-.072-10.62.468-15.264,1.476l-6.912-3.24z" fill="#fff" fill-rule="evenodd" stroke="#000" stroke-miterlimit="10" stroke-width=".036"/>
 <path d="m23.994,3.834c-1.584.216-3.528.864-5.832,1.8-2.484,1.008-6.516,2.448-8.208,3.888-1.764,1.332-2.016,2.52-1.872,3.708 .144,1.008 1.116,1.872 2.916,2.592-.504-.864.216-1.836 2.448-3.06 2.196-1.26 5.652-2.52 10.512-4.068-.468-.648-.684-1.44-.648-2.232-.072-.828.288-1.656.684-2.628z" fill="#fff" fill-rule="evenodd" stroke="#000" stroke-miterlimit="10" stroke-width=".036"/>
 <path d="m7.038,13.626c-.324.108-.324.612-.396,1.512 .036.864 0,2.124.288,3.78 2.196,1.512 4.86,2.592 8.136,3.672 3.24.864 6.48,1.548 11.232,2.196 4.608.684 11.304,1.368 16.596,1.764 5.112.252 8.352.288 14.58-.036 6.229-.288 15.48-.648 22.464-1.764 6.841-1.332 12.853-3.096 18.324-5.688l1.152-7.416c-1.332,2.196-3.708,3.888-7.128,5.472-3.564,1.404-8.641,2.556-13.572,3.456-5.004.792-10.764,1.404-15.732,1.836-4.932.36-8.64.54-13.644.54-5.148-.108-11.808-.396-16.632-.72-4.824-.396-8.604-.936-12.168-1.62-3.708-.828-7.164-1.944-9.396-3.06-2.268-1.224-3.636-2.484-4.104-3.924z" fill="#fff" fill-rule="evenodd" stroke="#000" stroke-miterlimit="10" stroke-width=".036"/>
 <path d="m6.642,20.142c-1.296,2.556-2.268,5.04-3.06,7.452-.792,2.376-1.296,3.564-1.656,6.912-.576,3.24-.972,7.344-1.044,12.888-.036,5.508.18,12.168.792,20.124 9.972,6.192 17.856,9.432 23.796,9.576 5.904-.036 5.508-10.08 11.592-8.748 5.976,1.404 19.404,17.172 24.335,17.028 4.752-.324.181-18.54 4.608-18.54 4.428-.108 17.424,18.468 21.888,18.36 4.212-.216 1.116-18 4.32-19.188 3.276-1.152 8.064,2.664 14.904,11.988-.108-5.292-.252-10.692-.433-16.488-.216-5.94-.468-13.212-.756-18.072-.359-4.86-.216-6.732-1.368-10.62-1.26-3.924-3.239-8.136-5.939-12.636-3.672,2.124-8.208,3.852-14.04,5.184-5.868,1.296-12.924,2.124-20.628,2.628-7.92.396-17.532.72-25.524.144-8.064-.648-16.308-2.556-21.672-3.78-5.399-1.368-8.639-2.772-10.115-4.212z" fill="#fff" fill-rule="evenodd" stroke="#000" stroke-miterlimit="10" stroke-width=".036"/>
 <path d="m1.602,70.506 .684,37.729c15.012,5.796 25.056,8.027 30.564,6.3 5.436-1.908-4.104-16.056 1.8-16.344 5.832-.145 26.568,15.336 32.904,15.336 6.192-.252-.684-16.164 4.212-15.948 4.896.36 20.7,17.532 24.624,17.64 3.708-.144-4.319-16.56-2.304-17.748 1.908-1.044 6.552,2.448 13.932,11.053l-.828-28.44c-6.084-8.244-10.548-11.628-13.68-10.296-3.204,1.404-.647,18.252-4.968,18.324-4.536-.108-17.28-18.288-21.276-18.432-3.96-.144 0,15.588-2.412,17.748-2.664,2.088-8.027-2.268-12.636-5.004-4.68-2.916-11.232-11.34-14.94-11.808-3.816-.396-3.996,8.208-7.344,9.432-3.528,1.044-8.172-1.224-12.96-2.772-4.752-1.586-9.828-3.89-15.372-6.77z" fill="#fff" fill-rule="evenodd" stroke="#000" stroke-miterlimit="10" stroke-width=".036"/>
 <path d="m107.586,111.222c-6.48-8.748-10.332-12.42-11.412-11.447-1.224.972 4.716,14.363 4.608,17.531-.145,3.097-.648,3.925-5.257,1.08-4.787-3.023-18.504-17.136-22.392-18.611-3.816-1.404.036,6.804-.396,9.756-.396,2.771.396,6.948-2.628,7.128-3.421,0-11.017-3.744-16.561-6.372-5.616-2.7-12.924-8.532-15.948-9.288-2.952-.72-1.8,2.232-1.692,4.824 .036,2.556 2.808,8.208 1.8,10.296-1.152,2.016-2.52,2.592-8.388,1.728-5.94-.972-14.904-3.348-27.036-7.271 .072,11.34.36,21.527.468,30.852 .216,9.324.252,17.353.504,24.66 5.148,5.256 11.88,9.288 20.34,12.24 8.532,2.916 20.952,4.68 30.168,5.292 9.108.468 15.229.252 24.192-2.448 8.855-2.844 18.144-7.523 28.439-14.328 .685-11.34.973-21.348 1.261-30.708 .11-9.362.218-17.534-.07-24.914z" fill="#fff" fill-rule="evenodd" stroke="#000" stroke-miterlimit="10" stroke-width=".036"/>
</svg>
