<?xml version="1.0" encoding="UTF-8"?>
<svg enable-background="new 0 0 176.665 150.154" viewBox="0 0 176.665 150.154" xmlns="http://www.w3.org/2000/svg">
 <path d="m55.867,16.578c-.288.72-1.908,1.764-4.716,2.844-2.952,1.044-8.172,1.44-12.312,3.816-4.248,2.304-8.496,7.848-12.312,10.404-3.888,2.412-8.208,1.944-10.44,4.716-2.304,2.808-.468,8.1-2.844,11.844-2.52,3.564-9.54,6.372-11.34,9.972-1.908,3.528-3.276,7.308.468,11.34 3.744,3.924 10.872,8.027 21.78,12.313 3.996,17.135 7.128,30.168 9.936,39.779 2.664,9.432 4.716,15.121 6.156,17.064-.036,2.844 4.608,5.004 14.22,6.623 9.648,1.621 30.636,3.025 43.092,2.844 12.348-.287 22.176-1.906 30.313-4.715 4.68-5.545 8.891-13.141 12.779-23.221 3.889-10.115 7.309-22.283 10.404-36.936 5.111-.648 9.035-2.123 12.313-4.283 3.059-2.27 4.391-6.517 6.623-9.001 2.268-2.556 6.156-3.816 6.66-6.156 .217-2.592-2.377-5.94-4.283-8.496-1.945-2.556-4.609-4.392-6.625-6.624-2.016-2.412-3.707-4.464-5.221-7.128-1.654-2.736-.18-6.984-3.779-9-3.6-2.088-12.455-.504-17.531-3.312-5.186-2.916-8.533-10.728-13.248-13.716-4.861-3.024-10.98-2.232-15.156-4.284-4.141-2.232-6.049-6.372-9.469-8.532-3.492-2.304-6.912-4.572-11.375-4.716-4.753-.107-11.413,2.773-16.093,3.78-4.716.9-8.892-.792-11.844,1.44-3.096,2.197-5.004,5.797-6.156,11.341z" fill-rule="evenodd" stroke="#000" stroke-miterlimit="10" stroke-width=".036"/>
 <path d="m69.259,6.246c-2.628.288-4.32-.576-6.048.72-1.872,1.188-3.492,4.356-4.572,6.732-1.116,2.16.504,5.436-1.8,7.056-2.484,1.584-9.252,1.836-12.384,2.844-3.24.864-3.42.9-6.372,3.168-3.168,2.232-8.028,7.956-11.664,10.368-3.708,2.34-8.496.828-9.936,3.528-1.548,2.556 2.376,8.712 1.08,11.952-1.368,3.096-9.972,5.04-8.856,7.092 1.08,2.052 7.668,2.7 15.588,5.292 7.956,2.592 20.916,7.524 31.5,9.936 10.404,2.305 31.032,2.951 30.78,3.889-.504.863-22.536,2.303-32.904,1.404-10.512-1.08-20.7-4.897-29.016-7.417-8.388-2.628-16.884-7.596-20.196-7.812-3.276-.216-3.816,3.78.72,6.732 4.536,2.916 14.688,7.56 26.172,10.62 11.412,2.988 27.252,6.049 42.12,7.092 14.796.9 31.211.324 46.043-1.439 14.76-1.836 36.686-8.064 41.76-9.541 4.824-1.584-6.012-.215-12.383.361-6.48.432-26.064,3.311-25.848,2.807 .324-.611 18.898-3.635 27.252-6.011 8.172-2.412 18.828-5.94 21.959-8.496 3.025-2.7-1.619-4.572-3.527-7.416-2.053-3.024-6.121-6.156-8.172-9.936-2.088-3.78-.289-10.044-3.889-12.384-3.816-2.376-12.635.792-17.711-1.764-5.004-2.664-7.668-10.872-12.025-13.788-4.535-2.988-9.646-1.548-14.508-3.888-4.967-2.484-10.404-8.208-14.508-10.656-4.141-2.52-7.092-3.888-10.26-4.248-3.24-.432-6.264,1.62-9.216,2.124-3.131.502-6.695.683-9.179,1.079z" fill="#fff" fill-rule="evenodd" stroke="#000" stroke-miterlimit="10" stroke-width=".036"/>
 <path d="m43.735,136.17c-2.88-9-13.212-44.027-13.788-48.168-.54-4.033 9.036,23.111 10.26,24.084 1.008.756-4.428-19.152-3.528-18.756 .936.359 7.272,20.951 8.856,21.24 1.332.072-1.188-19.225-.36-19.836 .828-.469 3.564,16.559 5.292,16.631 1.62-.18 3.384-17.459 4.608-16.992 1.116.541 1.152,19.693 2.484,19.836 1.188-.107 3.6-24.912 5.292-19.836 1.62,5.256 5.328,45.721 4.608,50.293-.864,4.211-7.668-24.156-9.18-24.445-1.548-.18.9,22.32 0,22.645-1.008.037-4.896-20.988-5.688-21.564-.792-.467 1.26,18.072.72,18.396-.756.037-4.104-17.316-4.608-17.352-.504.035 2.772,17.531 1.764,17.352-1.152-.504-7.56-19.188-8.136-19.115-.576.287 4.248,17.387 4.608,20.195 .216,2.591-.432,4.103-3.204-4.608z" fill="#fff" fill-rule="evenodd" stroke="#000" stroke-miterlimit="10" stroke-width=".036"/>
 <path d="m136.147,104.633c-1.404,6.625-9.107,29.701-10.621,32.58-1.619,2.629 2.412-15.912 1.404-15.912-1.223.072-6.73,15.912-7.775,16.273-1.045.18 2.736-14.977 1.764-14.508-1.115.539-7.92,22.031-7.775,17.676 .107-4.68 7.199-40.537 8.496-44.244 1.225-3.529-2.053,22.932-1.08,23.004 .9-.072 5.291-22.969 6.371-23.004 .828-.072-1.764,22.393-.684,22.68 1.08-.035 5.328-19.08 7.057-21.6 1.583-2.412 4.103.36 2.843,7.055z" fill="#fff" fill-rule="evenodd" stroke="#000" stroke-miterlimit="10" stroke-width=".036"/>
 <path d="m114.186,101.465c-1.727-5.58-3.238-7.811-4.932-7.092-1.691.756-3.348,4.609-4.967,11.701-1.945-8.893-3.672-13.357-5.328-13.824-1.693-.469-3.168,3.313-4.572,11.34-2.988-6.553-5.22-9.576-7.092-9.217-1.872.396-3.168,4.033-3.888,11.34-2.304-7.775-4.176-11.771-6.048-12.383-1.836-.576-4.968.9-4.932,8.855-.036,7.957 2.844,32.688 4.608,38.232 1.62,5.256 3.384,3.168 5.292-6.408 2.016,7.271 3.744,10.871 5.328,11.34 1.584.252 2.736-2.629 3.889-9.18 1.691,6.408 3.275,9.611 4.607,9.9 1.332.18 2.557-2.557 3.527-8.496 1.621,5.328 3.277,7.559 4.969,7.092 1.691-.576 3.203-3.168 4.932-10.297 1.621-7.27 3.06-18.106 4.607-32.903z" fill="#fff" fill-rule="evenodd" stroke="#000" stroke-miterlimit="10" stroke-width=".036"/>
 <path d="m34.879,27.198c-1.728-.288-3.384-.648-4.968-.684-1.656-.072-3.744.396-4.752,0-1.152-.576-1.656-1.584-1.8-3.168-.504,1.476-.684,2.664-.684,3.852 .036,1.116.54,1.764.684,2.916-.144,1.008-.792,2.664-.684,3.6 .144.864.756,1.476 1.836,1.836 2.124-1.008 4.068-2.268 5.832-3.636 1.692-1.369 3.204-2.988 4.536-4.716z" fill-rule="evenodd" stroke="#000" stroke-miterlimit="10" stroke-width=".036"/>
 <path d="m32.179,27.414c-1.188.432-2.52.756-3.852.684-1.332,0-2.808-.396-4.284-.9 .468,1.008.648,1.98.684,2.916-.144.864-.648,1.692-.684,2.484 0,.756.18,1.224.684,1.8 .792-.54 1.836-1.368 3.132-2.484 1.188-1.26 2.628-2.628 4.32-4.5z" fill="#fff" fill-rule="evenodd" stroke="#000" stroke-miterlimit="10" stroke-width=".036"/>
 <path d="m133.807,26.946c.107-1.728.324-3.348.252-5.004-.145-1.764-.828-3.528-.396-4.716 .396-1.152 1.439-1.836 2.988-2.052-1.512-.288-2.699-.54-3.852-.36-1.152.072-1.836.756-2.881.936-1.188.144-2.771-.756-3.635-.36-.828.252-1.514.9-1.656,1.944 1.188,2.088 2.555,3.888 4.104,5.544 1.512,1.548 3.203,2.952 5.076,4.068z" fill-rule="evenodd" stroke="#000" stroke-miterlimit="10" stroke-width=".036"/>
 <path d="m133.375,24.282c-.613-1.188-.9-2.448-1.008-3.78-.109-1.404.07-2.808.539-4.356-.973.504-2.016.864-2.844.936-.973.036-1.873-.576-2.557-.432-.756.072-1.332.288-1.727.792 .574.756 1.439,1.836 2.734,2.952 1.334,1.116 2.776,2.412 4.863,3.888z" fill="#fff" fill-rule="evenodd" stroke="#000" stroke-miterlimit="10" stroke-width=".036"/>
 <path d="m88.951,23.058c-.684-2.016-1.62-3.744-2.664-5.04-1.116-1.26-3.204-1.944-3.744-2.88-.504-1.08-.432-2.34.504-3.636-1.296.864-2.16,1.692-2.88,2.628-.72.828-.684,1.872-1.26,2.736-.72.864-2.052,1.404-2.736,2.448-.756.972-1.368,2.232-1.692,3.636 2.736-1.116 5.328-1.656 7.776-1.62 2.376,0 4.608.576 6.696,1.728z" fill-rule="evenodd" stroke="#000" stroke-miterlimit="10" stroke-width=".036"/>
 <path d="m86.791,20.897c-.936-.792-1.8-1.656-2.736-2.592-.972-1.044-1.908-2.16-2.808-3.348-.288,1.116-.756,1.98-1.26,2.736-.72.612-1.368.9-2.088,1.548-.72.54-1.332,1.404-1.98,2.196 1.98-1.008 3.888-1.62 5.724-1.692 1.872-.107 3.456.325 5.148,1.152z" fill="#fff" fill-rule="evenodd" stroke="#000" stroke-miterlimit="10" stroke-width=".036"/>
 <path d="m44.707,49.194c.648-2.052 1.584-3.672 2.664-5.004 1.008-1.368 3.132-1.872 3.744-2.916 .468-1.116.396-2.268-.504-3.6 1.26.864 2.124,1.692 2.88,2.628 .612.828.612,1.872 1.26,2.736 .612.864 1.98,1.404 2.736,2.448 .72.972 1.332,2.196 1.692,3.672-2.772-1.152-5.364-1.656-7.776-1.656-2.412-.036-4.644.576-6.696,1.692z" fill-rule="evenodd" stroke="#000" stroke-miterlimit="10" stroke-width=".036"/>
 <path d="m46.867,47.07c.864-.792 1.764-1.656 2.7-2.592 .936-1.044 1.836-2.16 2.844-3.348 .252,1.116.72,1.98 1.26,2.736 .504.612 1.332.9 2.052,1.548 .72.54 1.26,1.404 2.016,2.196-1.98-1.08-4.032-1.656-5.76-1.728-1.764-.109-3.6.287-5.112,1.188z" fill="#fff" fill-rule="evenodd" stroke="#000" stroke-miterlimit="10" stroke-width=".036"/>
 <path d="m108.102,41.634c1.836-1.152 3.602-1.764 5.293-2.124 1.729-.324 3.492.576 4.715.18 1.045-.576 1.729-1.476 1.908-3.096 .361,1.44.541,2.736.541,3.888-.072,1.044-.611,2.052-.793,2.88-.324.792 0,1.584-.539,2.088-.611.36-1.549.612-2.953.468 .037-.18-.611-.612-1.943-1.296-1.44-.684-3.42-1.728-6.229-2.988z" fill-rule="evenodd" stroke="#000" stroke-miterlimit="10" stroke-width=".036"/>
 <path d="m111.127,41.382c1.223-.036 2.34-.072 3.779-.252 1.297-.144 2.771-.432 4.283-.72-.215,1.26-.611,2.124-.791,2.88-.324.684-.432.972-.756,1.26-.432.18-.756.18-1.369,0-.791-.612-1.619-1.008-2.482-1.584-.865-.612-1.8-1.008-2.664-1.584z" fill="#fff" fill-rule="evenodd" stroke="#000" stroke-miterlimit="10" stroke-width=".036"/>
 <path d="m90.354,56.286c-1.907-1.116-3.671-1.836-5.291-2.16-1.8-.396-3.6.648-4.716.216-1.152-.468-1.8-1.548-1.944-3.096-.468,1.476-.504,2.664-.504,3.852-.036,1.116.504,2.088.792,2.916 .216.792-.108,1.584.54,2.088 .576.36 1.512.612 2.952.468-.072-.18.576-.612 1.944-1.296 1.404-.684 3.384-1.729 6.227-2.988z" fill-rule="evenodd" stroke="#000" stroke-miterlimit="10" stroke-width=".036"/>
 <path d="m87.331,56.034c-1.188-.036-2.448-.072-3.78-.252-1.368-.144-2.808-.432-4.32-.72 .252,1.26.576,2.124.828,2.88 .216.684.324.972.756,1.26 .36.18.756.18 1.332,0 .756-.612 1.584-1.008 2.484-1.584 .828-.612 1.728-1.008 2.7-1.584z" fill="#fff" fill-rule="evenodd" stroke="#000" stroke-miterlimit="10" stroke-width=".036"/>
 <path d="m117.102,68.166c.793-2.376 1.729-4.104 2.953-5.616 1.225-1.476 3.455-2.088 4.176-3.204 .611-1.26.432-2.556-.541-4.032 1.332.936 2.449,1.908 3.205,2.916 .756.936.576,2.088 1.404,3.06 .756.936 2.088,1.512 3.023,2.7 .828,1.188 1.404,2.412 1.873,4.068-3.133-1.224-6.014-1.872-8.641-1.8-2.735-.036-5.22.648-7.452,1.908z" fill-rule="evenodd" stroke="#000" stroke-miterlimit="10" stroke-width=".036"/>
 <path d="m119.514,65.79c.973-.9 1.98-1.872 3.025-2.916 1.043-1.152 2.051-2.34 3.168-3.708 .324,1.188.684,2.196 1.367,3.024 .576.648 1.477,1.08 2.305,1.728 .756.684 1.439,1.512 2.195,2.484-2.268-1.224-4.393-1.872-6.371-1.944-2.087-.18-3.853.396-5.689,1.332z" fill="#fff" fill-rule="evenodd" stroke="#000" stroke-miterlimit="10" stroke-width=".036"/>
</svg>
