<?xml version="1.0" encoding="UTF-8"?>
<svg enable-background="new 895.376 -64.624 1672.15 1672.15" version="1.1" viewBox="895.376 -64.624 1672.15 1672.15" xmlns="http://www.w3.org/2000/svg">
 <circle cx="1444.1" cy="611.92" r="66.818"/>
 <circle cx="2010.2" cy="611.92" r="66.818"/>
 <path d="m1731.5 1571.5c-107.98 0-212.76-21.157-311.41-62.883-95.268-40.295-180.82-97.973-254.28-171.43-73.459-73.459-131.14-159.01-171.43-254.28-41.725-98.65-62.882-203.42-62.882-311.41s21.157-212.76 62.883-311.41c40.295-95.268 97.973-180.82 171.43-254.28 73.46-73.459 159.01-131.14 254.28-171.43 98.65-41.725 203.42-62.882 311.41-62.882s212.76 21.157 311.41 62.883c95.268 40.295 180.82 97.973 254.28 171.43 73.459 73.46 131.14 159.01 171.43 254.28 41.726 98.65 62.883 203.42 62.883 311.41s-21.157 212.76-62.883 311.41c-40.295 95.268-97.973 180.82-171.43 254.28s-159.01 131.14-254.28 171.43c-98.65 41.726-203.42 62.883-311.41 62.883zm0-1528.4c-401.65 0-728.41 326.76-728.41 728.41s326.76 728.41 728.41 728.41 728.41-326.76 728.41-728.41-326.76-728.41-728.41-728.41z"/>
 <path d="m1407.1 980.85h648.7v87.119h-648.7v-87.119z"/>
 <path d="m1320.7 376.15c79.77-28.857 167.14-25.659 246.94 5.71v72c-79.804-31.369-167.18-34.567-246.94-5.71v-72z"/>
 <path d="m1886.7 470.26c84.439-12.988 162.79-63.615 246.94-94.106v72c-84.158 30.491-162.5 81.117-246.94 94.106v-72z"/>
</svg>
